<?xml version="1.0"?>
<svg xmlns="http://www.w3.org/2000/svg" height="512px" viewBox="0 0 448 448" width="512px"><path d="m96 0c-53.019531 0-96 42.980469-96 96s42.980469 96 96 96 96-42.980469 96-96c-.058594-52.996094-43.003906-95.9414062-96-96zm8 96c0 4.417969-3.582031 8-8 8h-48c-4.417969 0-8-3.582031-8-8s3.582031-8 8-8h40v-56c0-4.417969 3.582031-8 8-8s8 3.582031 8 8zm0 0" fill="#E64F56"/><path d="m352 0c-53.019531 0-96 42.980469-96 96s42.980469 96 96 96 96-42.980469 96-96c-.058594-52.996094-43.003906-95.9414062-96-96zm37.65625 133.65625c-3.125 3.121094-8.1875 3.121094-11.3125 0l-32-32c-1.5-1.5-2.34375-3.535156-2.34375-5.65625v-64c0-4.417969 3.582031-8 8-8s8 3.582031 8 8v60.6875l29.65625 29.65625c3.121094 3.125 3.121094 8.1875 0 11.3125zm0 0" fill="#E64F56"/><path d="m96 256c-53.019531 0-96 42.980469-96 96s42.980469 96 96 96 96-42.980469 96-96c-.058594-52.996094-43.003906-95.941406-96-96zm50.910156 56.398438-45.253906 45.257812c-3.125 3.121094-8.1875 3.121094-11.3125 0l-33.9375-33.945312c-2.078125-2.007813-2.910156-4.980469-2.179688-7.777344.730469-2.796875 2.917969-4.984375 5.714844-5.714844 2.796875-.734375 5.769532.101562 7.777344 2.179688l28.28125 28.289062 39.601562-39.597656c3.136719-3.035156 8.128907-2.992188 11.214844.09375 3.085938 3.085937 3.128906 8.078125.09375 11.214844zm0 0" fill="#E64F56"/><path d="m352 256c-53.019531 0-96 42.980469-96 96s42.980469 96 96 96 96-42.980469 96-96c-.058594-52.996094-43.003906-95.941406-96-96zm8 104c0 2.121094-.84375 4.15625-2.34375 5.65625l-36 36c-3.140625 3.03125-8.128906 2.988281-11.214844-.097656-3.085937-3.085938-3.128906-8.074219-.097656-11.214844l33.65625-33.65625v-68.6875c0-4.417969 3.582031-8 8-8s8 3.582031 8 8zm0 0" fill="#E64F56"/></svg>
