<?xml version="1.0"?>
<svg xmlns="http://www.w3.org/2000/svg" height="512px" viewBox="0 -45 512 511" width="512px"><path d="m494.328125 205.140625v-76.300781c0-24.816406-20.1875-45-45-45h-60.835937l-78.945313-78.945313c-5.855469-5.859375-15.355469-5.859375-21.210937 0l-31.492188 31.488281-31.488281-31.488281c-2.8125-2.8125-6.628907-4.394531-10.605469-4.394531-3.980469 0-7.796875 1.582031-10.605469 4.394531l-78.945312 78.945313h-80.199219c-24.8125 0-45 20.183594-45 45v248.273437c0 24.8125 20.1875 45 45 45h404.328125c24.8125 0 45-20.1875 45-45v-76.304687c10.40625-4.710938 17.671875-15.1875 17.671875-27.335938v-40.992187c0-12.148438-7.265625-22.625-17.671875-27.339844zm-45 186.972656h-35.25c1.664063-4.695312 2.578125-9.742187 2.578125-15v-73.640625h47.671875v73.640625c0 8.273438-6.730469 15-15 15zm-404.328125 0c-8.269531 0-15-6.726562-15-15v-248.273437c0-8.273438 6.730469-15 15-15h326.65625c8.273438 0 15 6.726562 15 15v73.640625h-56.390625c-16.542969 0-30 13.457031-30 30v40.992187c0 16.539063 13.457031 30 30 30h56.390625v73.640625c0 8.273438-6.726562 15-15 15zm419.328125-263.273437v73.640625h-47.671875v-73.640625c0-5.261719-.914062-10.308594-2.578125-15h35.25c8.269531 0 15 6.726562 15 15zm-134.0625 144.632812v-40.992187h151.734375l.019531 40.988281s-.007812.003906-.019531.003906zm15.800781-189.632812h-94.25l47.125-47.125zm-136.675781 0h-41.765625l47.125-47.125 20.882812 20.882812zm0 0" fill="#FFFFFF"/></svg>
