<?xml version="1.0"?>
<svg xmlns="http://www.w3.org/2000/svg" height="512px" viewBox="0 -11 512 512" width="512px"><path d="m140.074219 233.910156c4.050781.773438 7.980469-1.886718 8.757812-5.945312 5.300781-27.714844 29.636719-47.832032 57.859375-47.832032 32.492188 0 58.925782 26.433594 58.925782 58.925782 0 32.488281-26.433594 58.921875-58.925782 58.921875-26.496094 0-49.871094-17.867188-56.84375-43.449219-1.089844-3.992188-5.207031-6.339844-9.191406-5.253906-3.988281 1.085937-6.339844 5.199218-5.253906 9.1875 8.742187 32.082031 38.058594 54.484375 71.289062 54.484375 40.746094 0 73.894532-33.148438 73.894532-73.894531 0-40.742188-33.148438-73.890626-73.894532-73.890626-35.394531 0-65.914062 25.226563-72.5625 59.984376-.777344 4.0625 1.882813 7.984374 5.945313 8.761718zm0 0" fill="#EDA55D"/><path d="m234.621094 226.414062-21.355469-36.550781c-1.34375-2.296875-3.804687-3.707031-6.464844-3.707031-.003906 0-.011719 0-.019531 0-2.664062.003906-5.128906 1.429688-6.460938 3.738281l-21.128906 36.542969c-1.140625 1.976562-1.320312 4.367188-.480468 6.492188.835937 2.125 2.597656 3.753906 4.785156 4.414062l21.425781 6.519531c.710937.214844 1.445313.324219 2.179687.324219.746094 0 1.488282-.113281 2.210938-.335938l21.058594-6.511718c2.183594-.675782 3.9375-2.308594 4.761718-4.4375.832032-2.128906.640626-4.515625-.511718-6.488282zm-27.539063 2.457032-10.207031-3.105469 9.960938-17.230469 10.101562 17.289063zm0 0" fill="#EDA55D"/><path d="m225.636719 242.328125-18.710938 5.785156-18.710937-5.785156c-2.9375-.90625-6.125.070313-8.046875 2.460937-1.921875 2.394532-2.191407 5.714844-.675781 8.386719l20.921874 36.867188c1.328126 2.34375 3.816407 3.792969 6.511719 3.792969 2.691407 0 5.179688-1.449219 6.507813-3.792969l20.921875-36.867188c1.515625-2.671875 1.246093-5.996093-.675781-8.386719-1.921876-2.390624-5.109376-3.367187-8.042969-2.460937zm-18.710938 28.855469-5.09375-8.972656 1.972657.609374c2.015624.625 4.214843.628907 6.234374 0l1.976563-.609374zm0 0" fill="#EDA55D"/><path d="m439.722656 398.460938v-251.042969c0-.082031-.007812-.167969-.011718-.25-.003907-.085938-.007813-.167969-.011719-.25-.023438-.320313-.058594-.636719-.117188-.949219 0-.003906 0-.007812 0-.011719-.066406-.316406-.15625-.625-.257812-.929687-.027344-.078125-.054688-.15625-.082031-.230469-.109376-.292969-.230469-.574219-.375-.847656-.007813-.015625-.011719-.03125-.019532-.046875-.152344-.285156-.332031-.558594-.519531-.820313-.046875-.066406-.097656-.132812-.144531-.199219-.199219-.261718-.414063-.519531-.648438-.753906l-80.550781-80.550781c-.238281-.238281-.492187-.449219-.757813-.652344-.0625-.046875-.128906-.097656-.195312-.144531-.265625-.1875-.539062-.367188-.824219-.519531-.015625-.007813-.03125-.011719-.042969-.019531-.273437-.144532-.558593-.265626-.851562-.375-.074219-.027344-.152344-.054688-.230469-.082032-.304687-.101562-.613281-.195312-.929687-.257812-.003906 0-.011719 0-.019532 0-.304687-.0625-.621093-.097656-.933593-.117188-.085938-.007812-.171875-.011718-.261719-.015625-.082031 0-.167969-.011719-.25-.011719h-261.273438c-9.449218 0-17.140624 7.691407-17.140624 17.140626v326.015624c0 9.453126 7.691406 17.140626 17.140624 17.140626h328.089844c11.699219 0 21.21875-9.519532 21.21875-21.21875zm-21.21875 6.25h-168.707031c-1.199219 0-2.171875-.972657-2.171875-2.171876v-16.292968c0-4.132813-3.347656-7.484375-7.484375-7.484375-4.132813 0-7.484375 3.351562-7.484375 7.484375v16.292968c0 .738282.0625 1.457032.152344 2.171876h-62.703125c-1.199219 0-2.171875-.972657-2.171875-2.171876v-69.777343c11.949218 4.957031 25.039062 7.703125 38.757812 7.703125 8.972656 0 17.671875-1.175782 25.964844-3.375v19.214844c0 4.132812 3.351562 7.484374 7.484375 7.484374 4.136719 0 7.484375-3.351562 7.484375-7.484374v-24.480469c35.585938-15.761719 60.472656-51.410157 60.472656-92.765625 0-41.359375-24.886718-77.003906-60.472656-92.769532v-69.765624c0-1.195313.972656-2.167969 2.171875-2.167969h94.40625v73.0625c0 4.136719 3.351563 7.488281 7.484375 7.488281h73.066406v243.554688c0 3.445312-2.804687 6.25-6.25 6.25zm-248.398437-330.355469h62.703125c-.089844.710937-.152344 1.429687-.152344 2.167969v64.503906c-8.289062-2.199219-16.992188-3.375-25.964844-3.375-13.71875 0-26.808594 2.746094-38.753906 7.703125v-68.832031c0-1.195313.96875-2.167969 2.167969-2.167969zm36.585937 78.265625c47.660156 0 86.4375 38.777344 86.4375 86.4375s-38.777344 86.433594-86.4375 86.433594-86.433594-38.773438-86.433594-86.433594 38.773438-86.4375 86.433594-86.4375zm179.976563-40.183594 27.5 27.496094h-54.996094v-54.992188zm-298.421875 290.101562v-326.015624c0-1.195313.972656-2.167969 2.167968-2.167969h62.703126c-.089844.710937-.152344 1.429687-.152344 2.167969v76.570312c-28.613282 17.945312-47.675782 49.769531-47.675782 85.964844 0 36.195312 19.0625 68.015625 47.675782 85.964844v77.515624c0 .738282.0625 1.457032.152344 2.171876h-62.703126c-1.195312 0-2.167968-.972657-2.167968-2.171876zm0 0" fill="#EDA55D"/><path d="m327.859375 262.488281h30.515625c2.71875 8.105469 10.375 13.972657 19.386719 13.972657 11.28125 0 20.460937-9.179688 20.460937-20.460938s-9.179687-20.460938-20.460937-20.460938c-8.253907 0-15.363281 4.921876-18.59375 11.976563h-31.308594c-4.132813 0-7.484375 3.351563-7.484375 7.484375 0 4.136719 3.351562 7.488281 7.484375 7.488281zm49.902344-11.976562c3.027343 0 5.488281 2.460937 5.488281 5.488281s-2.460938 5.488281-5.488281 5.488281c-3.027344 0-5.488281-2.460937-5.488281-5.488281s2.460937-5.488281 5.488281-5.488281zm0 0" fill="#EDA55D"/><path d="m402.714844 64.875c1.914062 0 3.832031-.730469 5.292968-2.195312l36.230469-36.230469h27.738281c2.570313 8.367187 10.367188 14.472656 19.5625 14.472656 11.28125 0 20.460938-9.179687 20.460938-20.460937s-9.179688-20.460938-20.460938-20.460938c-8.054687 0-15.019531 4.691406-18.351562 11.476562h-32.050781c-1.984375 0-3.886719.789063-5.292969 2.195313l-38.425781 38.421875c-2.921875 2.925781-2.921875 7.664062 0 10.585938 1.464843 1.464843 3.378906 2.195312 5.296875 2.195312zm88.824218-49.902344c3.027344 0 5.488282 2.460938 5.488282 5.488282 0 3.027343-2.460938 5.488281-5.488282 5.488281-3.027343 0-5.488281-2.460938-5.488281-5.488281 0-3.027344 2.460938-5.488282 5.488281-5.488282zm0 0" fill="#EDA55D"/><path d="m75.050781 434.347656-18.269531 18.269532h-17.484375c-3.117187-7.328126-10.386719-12.476563-18.835937-12.476563-11.28125 0-20.460938 9.179687-20.460938 20.460937s9.179688 20.457032 20.460938 20.457032c8.824218 0 16.339843-5.625 19.203124-13.472656h20.21875c1.984376 0 3.886719-.789063 5.292969-2.191407l20.460938-20.460937c2.921875-2.921875 2.921875-7.664063 0-10.585938-2.925781-2.921875-7.664063-2.921875-10.585938 0zm-54.589843 31.742188c-3.027344 0-5.488282-2.460938-5.488282-5.488282 0-3.027343 2.460938-5.492187 5.488282-5.492187 3.027343 0 5.488281 2.464844 5.488281 5.492187 0 3.027344-2.460938 5.488282-5.488281 5.488282zm0 0" fill="#EDA55D"/><path d="m20.460938 261.488281c8.636718 0 16.027343-5.386719 19.023437-12.972656h17.902344c4.136719 0 7.488281-3.351563 7.488281-7.488281 0-4.132813-3.351562-7.484375-7.488281-7.484375h-17.902344c-2.996094-7.585938-10.386719-12.972657-19.023437-12.972657-11.28125 0-20.460938 9.175782-20.460938 20.457032 0 11.285156 9.179688 20.460937 20.460938 20.460937zm0-25.949219c3.027343 0 5.488281 2.464844 5.488281 5.488282 0 3.027344-2.460938 5.492187-5.488281 5.492187-3.027344 0-5.488282-2.464843-5.488282-5.492187 0-3.023438 2.460938-5.488282 5.488282-5.488282zm0 0" fill="#EDA55D"/><path d="m491.539062 220.570312c-8.636718 0-16.027343 5.386719-19.023437 12.972657h-17.902344c-4.136719 0-7.488281 3.351562-7.488281 7.484375 0 4.136718 3.351562 7.488281 7.488281 7.488281h17.902344c2.996094 7.585937 10.386719 12.972656 19.023437 12.972656 11.28125 0 20.460938-9.175781 20.460938-20.460937 0-11.28125-9.179688-20.457032-20.460938-20.457032zm0 25.949219c-3.027343 0-5.488281-2.464843-5.488281-5.492187 0-3.023438 2.460938-5.488282 5.488281-5.488282 3.027344 0 5.488282 2.464844 5.488282 5.488282 0 3.027344-2.460938 5.492187-5.488282 5.492187zm0 0" fill="#EDA55D"/><path d="m491.539062 448.125c-8.636718 0-16.027343 5.386719-19.023437 12.972656h-16.800781l-26.75-26.75c-2.925782-2.921875-7.664063-2.921875-10.585938 0-2.921875 2.925782-2.921875 7.664063 0 10.585938l28.945313 28.945312c1.402343 1.402344 3.304687 2.191406 5.292969 2.191406h19.898437c2.996094 7.585938 10.386719 12.972657 19.023437 12.972657 11.28125 0 20.460938-9.175781 20.460938-20.457031s-9.179688-20.460938-20.460938-20.460938zm0 25.949219c-3.027343 0-5.488281-2.460938-5.488281-5.488281 0-3.027344 2.460938-5.492188 5.488281-5.492188 3.027344 0 5.488282 2.464844 5.488282 5.492188 0 3.027343-2.460938 5.488281-5.488282 5.488281zm0 0" fill="#EDA55D"/><path d="m20.460938 46.910156c8.636718 0 16.027343-5.390625 19.023437-12.976562h11.808594l13.777343 13.777344c1.460938 1.460937 3.378907 2.191406 5.292969 2.191406 1.914063 0 3.832031-.730469 5.292969-2.191406 2.925781-2.925782 2.925781-7.664063 0-10.585938l-15.96875-15.96875c-1.40625-1.40625-3.308594-2.191406-5.292969-2.191406h-14.910156c-2.996094-7.589844-10.386719-12.976563-19.023437-12.976563-11.28125 0-20.460938 9.179688-20.460938 20.460938s9.179688 20.460937 20.460938 20.460937zm0-25.949218c3.027343 0 5.488281 2.460937 5.488281 5.488281 0 3.027343-2.460938 5.488281-5.488281 5.488281-3.027344 0-5.488282-2.460938-5.488282-5.488281 0-3.027344 2.460938-5.488281 5.488282-5.488281zm0 0" fill="#EDA55D"/><path d="m392.734375 173.660156c-8.453125 0-15.722656 5.152344-18.835937 12.476563h-4.621094c-1.984375 0-3.886719.789062-5.292969 2.191406l-11.277344 11.28125h-24.847656c-4.132813 0-7.484375 3.351563-7.484375 7.484375 0 4.136719 3.351562 7.488281 7.484375 7.488281h27.945313c1.984374 0 3.890624-.789062 5.292968-2.195312l11.28125-11.28125h1.148438c2.863281 7.847656 10.378906 13.476562 19.207031 13.476562 11.28125 0 20.457031-9.179687 20.457031-20.460937s-9.175781-20.460938-20.457031-20.460938zm0 25.949219c-3.027344 0-5.492187-2.460937-5.492187-5.488281s2.464843-5.488282 5.492187-5.488282 5.488281 2.460938 5.488281 5.488282-2.460937 5.488281-5.488281 5.488281zm0 0" fill="#EDA55D"/><path d="m392.734375 296.421875c-8.453125 0-15.722656 5.148437-18.835937 12.476563h-1.519532l-11.28125-11.28125c-1.402344-1.40625-3.308594-2.195313-5.292968-2.195313h-27.945313c-4.136719 0-7.484375 3.351563-7.484375 7.488281 0 4.132813 3.347656 7.484375 7.484375 7.484375h24.84375l11.28125 11.28125c1.40625 1.402344 3.308594 2.191407 5.292969 2.191407h4.25c2.863281 7.847656 10.378906 13.472656 19.207031 13.472656 11.28125 0 20.457031-9.175782 20.457031-20.457032 0-11.285156-9.175781-20.460937-20.457031-20.460937zm0 25.949219c-3.027344 0-5.492187-2.464844-5.492187-5.488282 0-3.027343 2.464843-5.492187 5.492187-5.492187s5.488281 2.464844 5.488281 5.492187c0 3.023438-2.460937 5.488282-5.488281 5.488282zm0 0" fill="#EDA55D"/></svg>
