<?xml version="1.0"?>
<svg xmlns="http://www.w3.org/2000/svg" height="512px" viewBox="-78 0 512 512" width="512px"><path d="m278.5 232c-4.140625 0-7.5 3.359375-7.5 7.5s3.359375 7.5 7.5 7.5c34.460938 0 62.5 28.039062 62.5 62.5s-28.039062 62.5-62.5 62.5h-201c-34.460938 0-62.5-28.039062-62.5-62.5s28.039062-62.5 62.5-62.5c4.140625 0 7.5-3.359375 7.5-7.5s-3.359375-7.5-7.5-7.5c-42.734375 0-77.5 34.765625-77.5 77.5v40c0 42.734375 34.765625 77.5 77.5 77.5h201c42.734375 0 77.5-34.765625 77.5-77.5v-40c0-42.734375-34.765625-77.5-77.5-77.5zm34.5 169.582031c-6.15625 4.089844-13.078125 7.113281-20.5 8.816407v-24.6875c7.230469-1.328126 14.113281-3.652344 20.5-6.839844zm-270-22.714843c6.386719 3.191406 13.269531 5.515624 20.5 6.84375v24.6875c-7.421875-1.707032-14.34375-4.726563-20.5-8.820313zm35.5 8.132812h20.5v25h-20.5zm35.5 0h20.5v25h-20.5zm35.5 0h20.5v25h-20.5zm35.5 0h21.5v25h-21.5zm36.5 0h20.5v25h-20.5zm35.5 0h20.5v25h-20.5zm-241.691406-31.3125c3.6875 4.953125 7.953125 9.449219 12.691406 13.390625v18.515625c-6.953125-9.019531-11.511719-19.96875-12.691406-31.90625zm312.691406 31.90625v-18.515625c4.738281-3.941406 9.003906-8.4375 12.691406-13.390625-1.179687 11.9375-5.738281 22.886719-12.691406 31.90625zm0 0" fill="#EDA55D"/><path d="m76.5 275h5.5c4.140625 0 7.5-3.359375 7.5-7.5s-3.359375-7.5-7.5-7.5h-5.5c-27.292969 0-49.5 22.207031-49.5 49.5s22.207031 49.5 49.5 49.5h4c4.140625 0 7.5-3.359375 7.5-7.5s-3.359375-7.5-7.5-7.5h-4c-19.023438 0-34.5-15.476562-34.5-34.5s15.476562-34.5 34.5-34.5zm0 0" fill="#EDA55D"/><path d="m277.5 344h-167c-4.140625 0-7.5 3.359375-7.5 7.5s3.359375 7.5 7.5 7.5h167c27.292969 0 49.5-22.207031 49.5-49.5s-22.207031-49.5-49.5-49.5h-6.5c-4.140625 0-7.5 3.359375-7.5 7.5s3.359375 7.5 7.5 7.5h6.5c19.023438 0 34.5 15.476562 34.5 34.5s-15.476562 34.5-34.5 34.5zm0 0" fill="#EDA55D"/><path d="m267 83c4.140625 0 7.5-3.359375 7.5-7.5v-29c0-4.140625-3.359375-7.5-7.5-7.5s-7.5 3.359375-7.5 7.5v29c0 4.140625 3.359375 7.5 7.5 7.5zm0 0" fill="#EDA55D"/><path d="m307 44c4.140625 0 7.5-3.359375 7.5-7.5v-29c0-4.140625-3.359375-7.5-7.5-7.5s-7.5 3.359375-7.5 7.5v29c0 4.140625 3.359375 7.5 7.5 7.5zm0 0" fill="#EDA55D"/><path d="m307 164c4.140625 0 7.5-3.359375 7.5-7.5v-57c0-4.140625-3.359375-7.5-7.5-7.5s-7.5 3.359375-7.5 7.5v57c0 4.140625 3.359375 7.5 7.5 7.5zm0 0" fill="#EDA55D"/><path d="m307 212c4.140625 0 7.5-3.359375 7.5-7.5v-14c0-4.140625-3.359375-7.5-7.5-7.5s-7.5 3.359375-7.5 7.5v14c0 4.140625 3.359375 7.5 7.5 7.5zm0 0" fill="#EDA55D"/><path d="m90 83c4.140625 0 7.5-3.359375 7.5-7.5v-29c0-4.140625-3.359375-7.5-7.5-7.5s-7.5 3.359375-7.5 7.5v29c0 4.140625 3.359375 7.5 7.5 7.5zm0 0" fill="#EDA55D"/><path d="m50 44c4.140625 0 7.5-3.359375 7.5-7.5v-29c0-4.140625-3.359375-7.5-7.5-7.5s-7.5 3.359375-7.5 7.5v29c0 4.140625 3.359375 7.5 7.5 7.5zm0 0" fill="#EDA55D"/><path d="m50 164c4.140625 0 7.5-3.359375 7.5-7.5v-57c0-4.140625-3.359375-7.5-7.5-7.5s-7.5 3.359375-7.5 7.5v57c0 4.140625 3.359375 7.5 7.5 7.5zm0 0" fill="#EDA55D"/><path d="m50 212c4.140625 0 7.5-3.359375 7.5-7.5v-14c0-4.140625-3.359375-7.5-7.5-7.5s-7.5 3.359375-7.5 7.5v14c0 4.140625 3.359375 7.5 7.5 7.5zm0 0" fill="#EDA55D"/><path d="m178 73c4.140625 0 7.5-3.359375 7.5-7.5v-44c0-4.140625-3.359375-7.5-7.5-7.5s-7.5 3.359375-7.5 7.5v44c0 4.140625 3.359375 7.5 7.5 7.5zm0 0" fill="#EDA55D"/><path d="m178 460c-4.140625 0-7.5 3.359375-7.5 7.5v37c0 4.140625 3.359375 7.5 7.5 7.5s7.5-3.359375 7.5-7.5v-37c0-4.140625-3.359375-7.5-7.5-7.5zm0 0" fill="#EDA55D"/><path d="m261 439c-4.140625 0-7.5 3.359375-7.5 7.5v9c0 4.140625 3.359375 7.5 7.5 7.5s7.5-3.359375 7.5-7.5v-9c0-4.140625-3.359375-7.5-7.5-7.5zm0 0" fill="#EDA55D"/><path d="m261 474c-4.140625 0-7.5 3.359375-7.5 7.5v16c0 4.140625 3.359375 7.5 7.5 7.5s7.5-3.359375 7.5-7.5v-16c0-4.140625-3.359375-7.5-7.5-7.5zm0 0" fill="#EDA55D"/><path d="m95 439c-4.140625 0-7.5 3.359375-7.5 7.5v9c0 4.140625 3.359375 7.5 7.5 7.5s7.5-3.359375 7.5-7.5v-9c0-4.140625-3.359375-7.5-7.5-7.5zm0 0" fill="#EDA55D"/><path d="m95 474c-4.140625 0-7.5 3.359375-7.5 7.5v16c0 4.140625 3.359375 7.5 7.5 7.5s7.5-3.359375 7.5-7.5v-16c0-4.140625-3.359375-7.5-7.5-7.5zm0 0" fill="#EDA55D"/><path d="m141.574219 213.925781h72.054687l-14.824218 61.042969h-68.902344c-3.90625 0-7.523438 2.269531-9.222656 5.789062l-11.6875 24.214844c-1.542969 3.195313-1.335938 6.894532.546874 9.894532 1.886719 3.003906 5.128907 4.796874 8.675782 4.796874h91.464844c13.144531 0 24.839843-8.351562 29.101562-20.78125.175781-.511718.335938-1.035156.472656-1.5625.011719-.039062.019532-.078124.03125-.117187l4.527344-18.414063c.988281-4.023437-1.472656-8.085937-5.496094-9.074218-4.019531-.988282-8.082031 1.46875-9.070312 5.492187l-4.511719 18.347657c-.039063.152343-.085937.304687-.140625.457031-2.183594 6.371093-8.175781 10.652343-14.914062 10.652343h-83.882813l7.09375-14.695312h71.8125c3.457031 0 6.472656-2.371094 7.285156-5.730469l18.46875-76.042969c.542969-2.234374.027344-4.597656-1.394531-6.40625-1.421875-1.808593-3.59375-2.863281-5.894531-2.863281h-74.007813l7.09375-14.699219h74.773438c3.882812 0 7.546875 1.214844 10.316406 3.421876 5.128906 4.089843 7.191406 10.773437 5.25 17.027343-.042969.140625-.085938.289063-.121094.433594l-9.855468 40.101563c-.988282 4.019531 1.472656 8.082031 5.492187 9.070312s8.085937-1.46875 9.074219-5.492188l9.804687-39.894531c3.667969-12.132812-.355469-25.054687-10.296875-32.976562-5.414062-4.316407-12.394531-6.691407-19.664062-6.691407h-77.761719c-3.90625 0-7.523437 2.269532-9.222656 5.789063l-11.6875 24.21875c-1.542969 3.191406-1.335938 6.890625.546875 9.894531 1.886718 3.003906 5.128906 4.796875 8.671875 4.796875zm0 0" fill="#EDA55D"/><path d="m112.316406 266.773438h54.691406c4.722657 0 8.957032-2.992188 10.535157-7.445313l7.917969-22.347656c1.207031-3.414063.683593-7.21875-1.410157-10.179688-2.089843-2.957031-5.5-4.726562-9.125-4.726562h-51.820312c-4.261719 0-8.210938 2.480469-10.066407 6.316406l-10.785156 22.347656c-1.683594 3.484375-1.457031 7.523438.597656 10.800781 2.058594 3.277344 5.597657 5.234376 9.464844 5.234376zm13.1875-29.699219h44.011719l-5.207031 14.699219h-45.898438zm0 0" fill="#EDA55D"/><path d="m178 142c4.140625 0 7.5-3.359375 7.5-7.5v-40c0-4.140625-3.359375-7.5-7.5-7.5s-7.5 3.359375-7.5 7.5v40c0 4.140625 3.359375 7.5 7.5 7.5zm0 0" fill="#EDA55D"/></svg>
