<?xml version="1.0"?>
<svg xmlns="http://www.w3.org/2000/svg" height="512px" viewBox="-72 0 512 512" width="512px"><path d="m203.785156 109.371094h-47.332031c-4.144531 0-7.507813 3.359375-7.507813 7.507812v21.136719c0 4.148437 3.363282 7.507813 7.507813 7.507813h47.332031c9.96875 0 18.078125-8.109376 18.078125-18.078126 0-9.964843-8.109375-18.074218-18.078125-18.074218zm0 21.136718h-39.824218v-6.121093h39.824218c1.691406 0 3.0625 1.371093 3.0625 3.0625 0 1.6875-1.375 3.058593-3.0625 3.058593zm0 0" fill="#EDA55D"/><path d="m148.945312 182.132812v21.136719c0 4.148438 3.363282 7.507813 7.507813 7.507813h47.332031c9.96875 0 18.078125-8.109375 18.078125-18.074219 0-9.96875-8.109375-18.078125-18.078125-18.078125h-47.332031c-4.144531 0-7.507813 3.359375-7.507813 7.507812zm15.015626 7.507813h39.824218c1.691406 0 3.0625 1.371094 3.0625 3.0625 0 1.6875-1.371094 3.0625-3.0625 3.0625h-39.824218zm0 0" fill="#EDA55D"/><path d="m243.921875 127.445312c0-19.289062-13.875-35.59375-32.167969-39.324218v-7.449219c0-6.222656-5.0625-11.28125-11.28125-11.28125h-13.59375c-6.21875 0-11.28125 5.058594-11.28125 11.28125v6.640625h-6.125v-6.640625c0-6.222656-5.058594-11.28125-11.277344-11.28125h-13.59375c-6.21875 0-11.28125 5.058594-11.28125 11.28125v6.640625h-8.695312c-6.859375 0-12.441406 5.582031-12.441406 12.441406v12.191406c0 6.859376 5.582031 12.441407 12.441406 12.441407h2.261719v71.378906h-2.261719c-6.859375 0-12.441406 5.582031-12.441406 12.441406v12.191407c0 6.859374 5.582031 12.441406 12.441406 12.441406h8.695312v6.640625c0 6.21875 5.0625 11.28125 11.28125 11.28125h13.59375c6.21875 0 11.277344-5.0625 11.277344-11.28125v-6.640625h6.125v6.640625c0 6.21875 5.0625 11.28125 11.28125 11.28125h13.59375c6.21875 0 11.28125-5.0625 11.28125-11.28125v-7.449219c18.292969-3.730469 32.167969-20.035156 32.167969-39.324219 0-13.429687-6.628906-25.339843-16.789063-32.628906 10.160157-7.292969 16.789063-19.203125 16.789063-32.632813zm-40.136719 25.121094h-17.003906c-4.144531 0-7.507812 3.359375-7.507812 7.507813 0 4.148437 3.363281 7.507812 7.507812 7.507812h17.003906c13.851563 0 25.121094 11.269531 25.121094 25.121094 0 13.65625-11.113281 24.917969-24.765625 25.109375-4.105469.054688-7.402344 3.398438-7.402344 7.503906v10.429688h-6.125v-10.417969c0-4.144531-3.363281-7.503906-7.507812-7.503906h-21.136719c-4.148438 0-7.507812 3.359375-7.507812 7.503906v10.417969h-6.125v-10.417969c0-4.144531-3.363282-7.503906-7.507813-7.503906h-13.632813v-7.046875h7.199219c4.148438 0 7.507813-3.359375 7.507813-7.503906v-35.691407h9.953125c4.148437 0 7.507812-3.359375 7.507812-7.507812 0-4.144531-3.359375-7.507813-7.507812-7.507813h-9.953125v-35.6875c0-4.148437-3.359375-7.507812-7.507813-7.507812h-7.199219v-7.042969h13.632813c4.144531 0 7.507813-3.359375 7.507813-7.507813v-10.414062h6.125v10.414062c0 4.144532 3.359374 7.507813 7.507812 7.507813h21.136719c4.144531 0 7.507812-3.363281 7.507812-7.507813v-10.414062h6.125v10.425781c0 4.105469 3.296875 7.449219 7.402344 7.507813 13.65625.1875 24.765625 11.449218 24.765625 25.105468 0 13.851563-11.269531 25.121094-25.121094 25.121094zm0 0" fill="#EDA55D"/><path d="m176.671875 287.980469c64.632813 0 119.5625-48.300781 127.777344-112.355469.527343-4.113281-2.378907-7.875-6.492188-8.402344-4.113281-.523437-7.875 2.378906-8.402343 6.492188-7.253907 56.582031-55.78125 99.25-112.882813 99.25-62.753906 0-113.808594-51.054688-113.808594-113.808594 0-62.757812 51.054688-113.8125 113.808594-113.8125 57.578125 0 106.152344 43.070312 112.992187 100.1875.492188 4.117188 4.234376 7.058594 8.347657 6.5625 4.117187-.492188 7.054687-4.230469 6.5625-8.34375-7.746094-64.660156-62.730469-113.421875-127.902344-113.421875-71.035156 0-128.824219 57.792969-128.824219 128.828125s57.789063 128.824219 128.824219 128.824219zm0 0" fill="#EDA55D"/><path d="m353.34375 362.878906v-112.238281c0-8.222656-6.6875-14.910156-14.910156-14.910156h-22.339844c12.636719-22.949219 19.734375-49.152344 19.734375-76.574219 0-87.757812-71.398437-159.15625-159.15625-159.15625s-159.15625 71.398438-159.15625 159.15625c0 27.433594 7.105469 53.648438 19.753906 76.605469-20.664062.675781-37.269531 17.683593-37.269531 38.507812v207.460938c0 16.691406 13.578125 30.269531 30.269531 30.269531h306.957031c8.886719 0 16.117188-7.230469 16.117188-16.121094v-59.980468c7.773438-.269532 14.015625-6.65625 14.015625-14.492188v-44.03125c0-7.835938-6.242187-14.226562-14.015625-14.496094zm-1 58.03125h-66.566406c-11.863282 0-21.519532-9.652344-21.519532-21.519531s9.65625-21.523437 21.519532-21.523437h66.566406zm-14.011719-170.164062v47.042968h-83.476562c20.714843-11.71875 38.371093-27.890624 51.863281-47.042968zm-161.660156-235.730469c79.480469 0 144.140625 64.660156 144.140625 144.140625 0 64.230469-42.964844 121.089844-104.597656 138.632812h-79.082032c-61.636718-17.542968-104.601562-74.402343-104.601562-138.632812 0-79.480469 64.660156-144.140625 144.140625-144.140625zm160.554687 481.96875h-306.957031c-8.410156 0-15.253906-6.84375-15.253906-15.253906v-176.96875c6.511719 5.035156 14.671875 8.042969 23.523437 8.042969h1.5c4.144532 0 7.507813-3.359376 7.507813-7.507813 0-4.144531-3.363281-7.507813-7.507813-7.507813h-1.5c-12.972656 0-23.523437-10.550781-23.523437-23.519531 0-12.972656 10.550781-23.523437 23.523437-23.523437h8.089844c13.488282 19.152344 31.148438 35.324218 51.859375 47.042968h-28.417969c-4.148437 0-7.507812 3.363282-7.507812 7.507813 0 4.148437 3.359375 7.507813 7.507812 7.507813h268.261719v50.050781h-52.554687c-20.144532 0-36.535156 16.390625-36.535156 36.535156s16.390624 36.535156 36.535156 36.535156h52.554687v59.953125c0 .609375-.496093 1.105469-1.105469 1.105469zm0 0" fill="#EDA55D"/><path d="m294.789062 399.390625c0 6.082031-4.929687 11.011719-11.011718 11.011719-6.082032 0-11.011719-4.929688-11.011719-11.011719s4.929687-11.011719 11.011719-11.011719c6.082031 0 11.011718 4.929688 11.011718 11.011719zm0 0" fill="#EDA55D"/><path d="m140.402344 404.894531h-91.621094c-8.683594 0-15.75 7.066407-15.75 15.75v41.570313c0 8.6875 7.066406 15.75 15.75 15.75h91.621094c8.683594 0 15.75-7.066406 15.75-15.75v-41.570313c0-8.683593-7.066406-15.75-15.75-15.75zm.734375 57.320313c0 .40625-.328125.738281-.734375.738281h-91.621094c-.402344 0-.734375-.332031-.734375-.738281v-41.566406c0-.40625.332031-.738282.734375-.738282h91.621094c.40625 0 .734375.332032.734375.738282zm0 0" fill="#EDA55D"/></svg>
