<?xml version="1.0"?>
<svg xmlns="http://www.w3.org/2000/svg" viewBox="0 0 512 512" width="512px" height="512px"><path d="m512 177.75c0-98.011719-79.738281-177.75-177.75-177.75-28.066406 0-54.625 6.546875-78.25 18.179688-23.625-11.632813-50.183594-18.179688-78.25-18.179688-98.011719 0-177.75 79.738281-177.75 177.75 0 61.277344 31.167969 115.410156 78.480469 147.382812-.152344 3.019532-.230469 6.058594-.230469 9.117188 0 98.011719 79.738281 177.75 177.75 177.75s177.75-79.738281 177.75-177.75c0-3.058594-.078125-6.097656-.230469-9.117188 47.3125-31.972656 78.480469-86.105468 78.480469-147.382812zm-482 0c0-81.46875 66.28125-147.75 147.75-147.75 16.476562 0 32.335938 2.714844 47.148438 7.714844-41.609376 32.5625-68.398438 83.226562-68.398438 140.035156 0 3.058594.078125 6.097656.230469 9.117188-35.917969 24.273437-62.515625 61.316406-73.253907 104.558593-32.648437-27.121093-53.476562-68.011719-53.476562-113.675781zm295.324219-7.171875c-21.3125-9.058594-44.742188-14.078125-69.324219-14.078125s-48.011719 5.019531-69.324219 14.078125c2.390625-49.765625 29.519531-93.144531 69.324219-118.097656 39.804688 24.953125 66.933594 68.332031 69.324219 118.097656zm-69.324219 132.441406c-34.964844-21.917969-60.140625-58.050781-67.371094-100.246093 20.214844-10.398438 43.117188-16.273438 67.371094-16.273438s47.15625 5.875 67.371094 16.273438c-7.230469 42.195312-32.40625 78.328124-67.371094 100.246093zm94.273438-82.449219c26.550781 22.058594 45.277343 53.222657 51.347656 88.65625-20.214844 10.398438-43.117188 16.273438-67.371094 16.273438-16.476562 0-32.335938-2.714844-47.148438-7.714844 30.796876-24.101562 53.464844-58.125 63.171876-97.214844zm-125.375 97.214844c-14.8125 5-30.667969 7.714844-47.148438 7.714844-24.253906 0-47.15625-5.875-67.371094-16.273438 6.070313-35.433593 24.796875-66.597656 51.347656-88.65625 9.707032 39.089844 32.375 73.113282 63.171876 97.214844zm31.101562 164.214844c-79.066406 0-143.820312-62.425781-147.574219-140.578125 21.3125 9.058594 44.746094 14.078125 69.324219 14.078125 28.066406 0 54.625-6.546875 78.25-18.179688 23.625 11.632813 50.183594 18.179688 78.25 18.179688 24.582031 0 48.011719-5.019531 69.324219-14.078125-3.753907 78.152344-68.507813 140.578125-147.574219 140.578125zm172.523438-190.570312c-10.738282-43.242188-37.335938-80.289063-73.253907-104.558594.152344-3.023438.230469-6.0625.230469-9.121094 0-56.808594-26.789062-107.472656-68.398438-140.035156 14.8125-5 30.667969-7.714844 47.148438-7.714844 81.46875 0 147.75 66.28125 147.75 147.75 0 45.664062-20.828125 86.554688-53.476562 113.679688zm0 0" fill="#E64F56"/></svg>
