<?xml version="1.0" encoding="utf-8"?>
<!-- Svg Vector Icons : http://www.onlinewebfonts.com/icon -->
<!DOCTYPE svg PUBLIC "-//W3C//DTD SVG 1.1//EN" "http://www.w3.org/Graphics/SVG/1.1/DTD/svg11.dtd">
<svg version="1.1" xmlns="http://www.w3.org/2000/svg" xmlns:xlink="http://www.w3.org/1999/xlink" x="0px" y="0px" viewBox="0 0 1000 1000" enable-background="new 0 0 1000 1000" xml:space="preserve">
<metadata> Svg Vector Icons : http://www.onlinewebfonts.com/icon </metadata>
<g><g transform="translate(0.000000,511.000000) scale(0.100000,-0.100000)"><path d="M3714.5,3264.6c-50.2-29-65.7-83.1-239.6-869.5c-92.7-409.7-172-759.4-175.8-776.8c-9.7-32.8-54.1-34.8-570-34.8c-568.1,0-616.4-5.8-653.1-73.4c-9.7-19.3-102.4-477.3-204.8-1018.3C1768.7-51.2,1679.8-513,1674-536.2l-9.7-44.4h-541c-309.2,0-554.6-7.7-573.9-19.3c-19.3-9.7-44.5-42.5-56-71.5s-110.1-552.6-216.4-1161.3C91.4-2882,83.7-2943.9,112.7-2988.3c17.4-27.1,52.2-56,79.2-65.7c48.3-19.3,9553.3-7.7,9644.1,11.6c23.2,3.9,52.2,23.2,61.8,42.5c13.5,27.1-36.7,343.9-181.6,1145.9C9480.5-561.3,9503.7-667.6,9455.4-619.3c-36.7,36.7-67.6,38.6-599,38.6c-307.2,0-560.4,3.9-560.4,9.7c0,48.3-374.9,2056-388.4,2081.1c-36.7,67.6-87,73.4-653.1,73.4h-562.3l-9.7,44.4c-5.8,23.2-92.7,390.3-193.2,815.4c-150.7,639.6-189.4,778.7-222.2,805.8c-40.6,32.8-127.5,34.8-1283,34.8C4242,3283.9,3733.8,3276.2,3714.5,3264.6z M6211,2317.8c83.1-355.5,156.5-666.6,162.3-689.8l9.7-44.4h-517.9c-577.8,0-585.5-1.9-622.2-131.4c-11.6-38.6-63.8-336.2-115.9-660.8c-54.1-324.6-102.4-614.5-110.1-647.3c-9.7-52.2-81.1,291.8-264.7,1292.7c-7.7,40.6-34.8,94.7-59.9,119.8l-46.4,46.4H4130h-514l9.7,44.4c5.8,23.2,73.4,320.8,148.8,660.9c75.4,340.1,141,629.9,144.9,643.5c7.7,19.3,231.9,23.2,1074.4,19.3l1066.6-5.8L6211,2317.8z M4470,1262.8c0-5.8,73.4-413.5,164.2-906.3c90.8-490.8,164.2-904.3,164.2-915.9c0-15.5-148.8-21.3-523.6-21.3c-297.6,0-537.2-7.7-556.5-19.3c-19.3-9.7-44.5-42.5-56-71.5c-11.6-29-75.4-345.9-139.1-701.4c-65.7-355.5-119.8-649.2-123.7-651.2c-1.9-3.9-59.9,301.5-127.5,676.3c-106.3,579.7-131.4,686-168.1,724.6c-42.5,42.5-48.3,42.5-585.5,42.5c-297.6,0-541,1.9-541,5.8c0,1.9,83.1,417.4,183.6,921.7c100.5,504.3,183.6,919.8,183.6,921.7c0,3.9,479.2,5.8,1062.8,5.8C3992.8,1274.4,4470,1268.6,4470,1262.8z M7610,1231.8c19.3-77.3,357.5-1781.6,357.5-1797c0-7.7-235.8-15.5-523.7-15.5c-297.6,0-537.2-7.7-556.5-19.3c-56-29-71.5-90.8-185.5-734.3c-59.9-334.3-112.1-610.6-115.9-614.5c-7.7-7.7-36.7,121.7-172,788.4c-88.9,430.9-112.1,515.9-146.8,544.9c-38.6,30.9-92.7,34.8-558.4,34.8h-517.9l154.6,927.5l154.6,927.5h1049.2h1051.2L7610,1231.8z M3044-1834.7c92.7-515.9,168.1-937.2,164.2-939.1c-1.9,0-631.9,1.9-1400.9,5.8c-1288.9,7.7-1395.1,9.7-1387.4,38.7c5.8,19.3,79.2,425.1,166.2,902.4c87,479.2,160.4,885,166.2,904.3c9.7,30.9,73.4,32.9,1066.6,29l1057-5.8L3044-1834.7z M6062.3-922.7c15.4-50.2,359.4-1810.6,359.4-1837.6c0-17.4-340.1-23.2-1408.6-23.2c-776.8,0-1414.5,5.8-1418.3,15.4c-5.8,9.7,313,1797.1,332.4,1874.3c1.9,1.9,479.2,3.9,1062.8,3.9C5985-889.8,6052.6-891.8,6062.3-922.7z M9225.4-893.7c0-3.9,77.3-427,170.1-943l168.1-937.2l-1391.3-5.8c-765.2-1.9-1397.1,1.9-1402.8,9.7c-7.7,9.7,65.7,434.8,162.3,946.8l175.8,933.3h1058.9C8748.2-889.8,9223.5-891.8,9225.4-893.7z"/><path d="M4456.5,2683c-305.3-260.9-318.8-278.3-311.1-361.3c3.9-46.4,21.2-79.2,58-106.3c90.8-67.6,158.5-36.7,427,197.1c295.7,258.9,316.9,301.4,208.7,409.7C4746.4,2912.9,4709.6,2901.4,4456.5,2683z"/><path d="M3103.9,866.6c-280.2-239.6-315-276.3-315-343.9c0-115.9,162.3-179.7,270.5-104.3c59.9,40.6,403.9,347.8,448.3,400c52.2,61.8,44.4,156.5-15.5,202.9C3397.6,1096.6,3351.2,1079.2,3103.9,866.6z"/><path d="M6236.2,847.3c-313-266.7-338.2-307.2-257-411.6c30.9-40.6,56-50.2,123.7-50.2c79.2,0,98.5,11.6,322.7,206.8c278.2,241.5,284.1,247.3,286,328.5c0,75.4-75.4,141.1-164.2,141.1C6497,1061.8,6441,1023.2,6236.2,847.3z"/><path d="M1525.2-1202.9c-77.3-44.4-504.3-427-529.5-471.5c-69.6-129.5,92.7-253.1,233.8-177.8c46.4,23.2,429,347.8,483.1,407.7c38.6,42.5,42.5,144.9,7.7,189.4c-27.1,36.7-96.6,75.4-133.3,75.4C1573.5-1179.7,1544.5-1191.3,1525.2-1202.9z"/><path d="M4672.9-1222.2c-46.4-25.1-448.3-371-496.6-427c-54.1-58-44.4-156.5,17.4-206.8c90.8-69.6,152.7-44.4,396.1,164.2c226.1,191.3,305.3,280.2,305.3,340.1c0,48.3-77.3,129.5-135.3,143C4732.8-1204.8,4694.2-1208.7,4672.9-1222.2z"/><path d="M7619.7-1372.9c-270.5-231.9-328.5-295.6-328.5-363.3c0-77.3,71.5-139.1,160.4-139.1c59.9,0,96.6,23.2,239.6,143c303.4,257,353.6,307.2,365.2,372.9c17.4,87-58,160.4-160.4,160.4C7832.2-1200.9,7797.5-1222.2,7619.7-1372.9z"/></g></g>
</svg>