<svg width="64" height="64" xmlns="http://www.w3.org/2000/svg">

 <g>
  <title>background</title>
  <rect fill="none" id="canvas_background" height="66" width="66" y="-1" x="-1"/>
 </g>
 <g>
  <title>Layer 1</title>
  <path stroke="null" id="svg_1" fill="none" d="m0,0l63.962088,0l0,58.507708l-63.962088,0l0,-58.507708z"/>
  <path stroke="null" fill="#ffffff" id="svg_2" opacity="0.9" d="m36.386795,4.836936c-15.061668,0 -27.232101,12.280238 -27.232101,27.424848l-9.082413,0l11.791999,11.868865l0.211923,0.441845l12.215845,-12.31071l-9.082413,0c0,-11.777449 9.491121,-21.330438 21.192296,-21.330438s21.192296,9.552989 21.192296,21.330438s-9.491121,21.330438 -21.192296,21.330438c-5.858156,0 -11.141093,-2.407292 -14.970844,-6.262007l-4.283871,4.311796c4.91964,4.966945 11.716312,8.044622 19.239578,8.044622c15.061668,0 27.262376,-12.280238 27.262376,-27.424848s-12.200708,-27.424848 -27.262376,-27.424848zm-3.012334,15.236027l0,15.236027l12.957575,7.739902l2.179779,-3.702355l-10.596148,-6.322951l0,-12.950623l-4.541206,0z"/>
 </g>
</svg>