<svg width="48" height="48" xmlns="http://www.w3.org/2000/svg">

 <g>
  <title>background</title>
  <rect fill="none" id="canvas_background" height="402" width="582" y="-1" x="-1"/>
 </g>
 <g>
  <title>Layer 1</title>
  <path id="svg_1" fill="none" d="m0,0l48,0l0,48l-48,0l0,-48z"/>
  <path stroke="null" fill="#ffffff" id="svg_2" opacity="0.9" d="m27.350472,4.475945c-11.239158,0 -20.320849,8.951303 -20.320849,19.990503l-6.777381,0l8.7993,8.651445l0.158139,0.322069l9.115578,-8.973515l-6.777381,0c0,-8.58481 7.082364,-15.548169 15.81389,-15.548169s15.81389,6.963359 15.81389,15.548169s-7.082364,15.548169 -15.81389,15.548169c-4.371411,0 -8.313588,-1.754722 -11.171384,-4.564498l-3.196665,3.142951c3.671082,3.620502 8.742822,5.863881 14.356753,5.863881c11.239158,0 20.34344,-8.951303 20.34344,-19.990503s-9.104282,-19.990503 -20.34344,-19.990503zm-2.247832,11.105835l0,11.105835l9.669064,5.641764l1.626572,-2.698718l-7.906945,-4.608922l0,-9.43996l-3.388691,0z"/>
 </g>
</svg>