<?xml version="1.0" encoding="utf-8"?>
<!-- Svg Vector Icons : http://www.onlinewebfonts.com/icon -->
<!DOCTYPE svg PUBLIC "-//W3C//DTD SVG 1.1//EN" "http://www.w3.org/Graphics/SVG/1.1/DTD/svg11.dtd">
<svg version="1.1" xmlns="http://www.w3.org/2000/svg" xmlns:xlink="http://www.w3.org/1999/xlink" x="0px" y="0px" viewBox="0 0 1000 1000" enable-background="new 0 0 1000 1000" xml:space="preserve">
<metadata> Svg Vector Icons : http://www.onlinewebfonts.com/icon </metadata>
<g><g transform="translate(0.000000,512.000000) scale(0.100000,-0.100000)"><path d="M6467.6,5001.3c-846.2-97.6-1766.9-539.8-2588.2-1244.3c-93.8-80.4-197.2-174.2-227.8-206.7c-32.5-32.5-65.1-59.3-76.6-59.3c-9.6,0-84.2,63.2-164.6,141.7c-151.2,147.4-210.6,178-300.6,157c-74.7-19.1-1759.3-1703.7-1778.4-1776.5c-21.1-91.9,9.6-151.2,157-302.5c78.5-80.4,141.7-155.1,141.7-164.6c0-11.5-30.6-49.8-68.9-86.1c-90-86.1-315.9-352.2-461.4-543.7c-379-501.6-700.6-1119.9-848-1627.2c-134-467.1-191.4-970.6-122.5-1102.7c34.5-68.9,143.6-120.6,216.3-103.4c32.5,7.6,474.8,434.6,1227.1,1188.8L2750,447.1l153.1-153.1c162.7-164.6,231.6-195.3,331.2-155.1c82.3,34.5,1740.1,1703.8,1755.4,1768.8c23,91.9-7.7,151.2-162.7,310.1l-151.2,155.1l1165.8,1165.8c798.3,796.4,1173.5,1186.9,1188.8,1229c26.8,80.4-17.2,183.8-95.7,224C6871.6,5024.2,6695.4,5028.1,6467.6,5001.3z"/><path d="M1764.1,4009.7c-114.9-36.4-212.5-107.2-386.7-283.3c-227.8-231.6-271.8-310.1-279.5-507.3c-9.6-202.9,28.7-312,158.9-451.8l103.4-109.1l551.3,551.3l551.3,551.3l-95.7,91.9c-120.6,114.9-269.9,174.2-436.5,172.3C1865.6,4025,1790.9,4017.3,1764.1,4009.7z"/><path d="M4405.9,705.5l-545.6-545.6l2469.5-2469.5L8799.3-4779h95.7c250.8,1.9,505.4,112.9,698.7,306.3s304.4,448,306.3,698.7v95.7L7436.3-1214.6C6079,142.7,4966.8,1251.1,4961,1251.1S4706.4,1006.1,4405.9,705.5z"/></g></g>
</svg>