<?xml version="1.0" encoding="utf-8"?>
<!-- Svg Vector Icons : http://www.onlinewebfonts.com/icon -->
<!DOCTYPE svg PUBLIC "-//W3C//DTD SVG 1.1//EN" "http://www.w3.org/Graphics/SVG/1.1/DTD/svg11.dtd">
<svg version="1.1" xmlns="http://www.w3.org/2000/svg" xmlns:xlink="http://www.w3.org/1999/xlink" x="0px" y="0px" viewBox="0 0 1000 1000" enable-background="new 0 0 1000 1000" xml:space="preserve">
<metadata> Svg Vector Icons : http://www.onlinewebfonts.com/icon </metadata>
<g><path d="M926.3,137.8H73.7C38.5,137.8,10,166,10,200.8v598.5c0,34.8,28.5,62.9,63.7,62.9h852.6c35.2,0,63.7-28.2,63.7-62.9V200.8C990,166,961.5,137.8,926.3,137.8L926.3,137.8z M395.6,720.5h-97.7h-97.6c-22.2,0-55-9.3-55-46.3c0-62.1,99-44.4,99-108.3c0-39.4-63.7-75.8-63.7-167.3c0-77.3,52.2-121.7,117.4-121.7c65.2,0,117.4,44.4,117.4,121.7c0,91.5-63.7,127.9-63.7,167.3c0,63.9,99,46.3,99,108.3C450.6,711.2,417.7,720.5,395.6,720.5L395.6,720.5z M849.4,673.7c0,19.2-15.8,34.8-35.2,34.8h-225c-19.4,0-35.3-15.6-35.3-34.8v-9c0-19.2,15.8-34.8,35.3-34.8h225c19.4,0,35.2,15.6,35.2,34.8V673.7L849.4,673.7z M849.4,507.5c0,19.2-15.8,34.8-35.2,34.8h-225c-19.4,0-35.3-15.6-35.3-34.8v-9c0-19.2,15.8-34.8,35.3-34.8h225c19.4,0,35.2,15.6,35.2,34.8V507.5L849.4,507.5z M849.4,341c0,19.2-15.8,34.8-35.2,34.8h-225c-19.4,0-35.3-15.5-35.3-34.8v-9.1c0-19.2,15.8-34.8,35.3-34.8h225c19.4,0,35.2,15.6,35.2,34.8V341L849.4,341z"/></g>
</svg>