<?xml version="1.0"?>
<svg xmlns="http://www.w3.org/2000/svg" viewBox="0 0 64 64">
    <path d="M 41.5 2 C 38.365 2 35.633156 3.7121406 34.160156 6.2441406 C 33.463156 6.0901406 32.742 6 32 6 C 26.486 6 22 10.486 22 16 C 22 20.144 24.538672 23.699844 28.138672 25.214844 C 28.057672 25.799844 28 26.393 28 27 C 28 34.168 33.832 40 41 40 C 48.168 40 54 34.168 54 27 C 54 22.383 51.573547 18.329437 47.935547 16.023438 C 49.216547 14.536437 50 12.612 50 10.5 C 50 5.813 46.187 2 41.5 2 z M 41.5 4 C 45.084 4 48 6.916 48 10.5 C 48 12.276 47.273281 13.877781 46.113281 15.050781 C 44.776281 14.476781 43.322781 14.133062 41.800781 14.039062 C 41.163781 10.846063 39.000422 8.2055313 36.107422 6.8945312 C 37.273422 5.1535312 39.251 4 41.5 4 z M 32 8 C 35.742 8 38.879047 10.5865 39.748047 14.0625 C 34.453047 14.5705 30.079359 18.266125 28.568359 23.203125 C 25.874359 21.915125 24 19.18 24 16 C 24 11.589 27.589 8 32 8 z M 32 10 C 28.691 10 26 12.691 26 16 C 26 16.552 26.448 17 27 17 C 27.552 17 28 16.552 28 16 C 28 13.794 29.794 12 32 12 C 32.552 12 33 11.552 33 11 C 33 10.448 32.552 10 32 10 z M 41 16 C 47.065 16 52 20.935 52 27 C 52 33.065 47.065 38 41 38 C 34.935 38 30 33.065 30 27 C 30 20.935 34.935 16 41 16 z M 41 18 C 40.448 18 40 18.448 40 19 L 40 20 C 37.794 20 36 21.794 36 24 C 36 26.206 37.794 28 40 28 L 42 28 C 43.103 28 44 28.897 44 30 C 44 31.103 43.103 32 42 32 L 42 30 C 42 29.448 41.552 29 41 29 C 40.448 29 40 29.448 40 30 L 40 32 C 38.897 32 38 31.103 38 30 C 38 29.448 37.552 29 37 29 C 36.448 29 36 29.448 36 30 C 36 32.206 37.794 34 40 34 L 40 35 C 40 35.552 40.448 36 41 36 C 41.552 36 42 35.552 42 35 L 42 34 C 44.206 34 46 32.206 46 30 C 46 27.794 44.206 26 42 26 L 42 24 C 42 23.448 41.552 23 41 23 C 40.448 23 40 23.448 40 24 L 40 26 C 38.897 26 38 25.103 38 24 C 38 22.897 38.897 22 40 22 L 42 22 C 43.103 22 44 22.897 44 24 C 44 24.552 44.448 25 45 25 C 45.552 25 46 24.552 46 24 C 46 21.794 44.206 20 42 20 L 42 19 C 42 18.448 41.552 18 41 18 z M 20.294922 37.322266 C 19.691125 37.308609 19.085719 37.336953 18.480469 37.408203 L 6.6503906 38.798828 C 5.1393906 38.976828 4 40.257297 4 41.779297 L 4 54.439453 C 4 55.369453 4.4202969 56.231687 5.1542969 56.804688 C 5.8872969 57.376688 6.8245625 57.574609 7.7265625 57.349609 L 14.289062 55.710938 C 15.962063 55.294938 17.724047 55.505594 19.248047 56.308594 L 31.835938 62.9375 C 33.147937 63.6285 34.586344 63.974609 36.027344 63.974609 C 37.449344 63.974609 38.872875 63.638844 40.171875 62.964844 L 61.474609 51.917969 C 63.032609 51.109969 63.998047 49.517859 63.998047 47.755859 C 63.999047 46.296859 63.337594 44.947688 62.183594 44.054688 C 61.029594 43.160688 59.555531 42.860563 58.144531 43.226562 L 44.736328 46.701172 C 44.472328 45.920172 44.017297 45.208672 43.404297 44.638672 C 42.391297 43.696672 41.024625 43.213547 39.640625 43.310547 L 37.449219 43.46875 C 36.591219 43.53275 35.733031 43.369906 34.957031 43.003906 L 25.544922 38.5625 C 23.893422 37.78325 22.106313 37.363234 20.294922 37.322266 z M 20.25 39.322266 C 21.783 39.357422 23.295359 39.711844 24.693359 40.371094 L 34.105469 44.8125 C 35.191469 45.3245 36.39475 45.547844 37.59375 45.464844 L 39.785156 45.306641 C 40.626156 45.248641 41.427922 45.529516 42.044922 46.103516 C 42.660922 46.676516 43 47.456828 43 48.298828 L 43 48.705078 C 43 49.098078 42.769156 49.456187 42.410156 49.617188 L 39.458984 50.943359 C 37.243984 51.938359 34.679781 51.990844 32.425781 51.089844 L 27.382812 49.070312 C 26.867812 48.864312 26.287031 49.114906 26.082031 49.628906 C 25.876031 50.141906 26.125672 50.722734 26.638672 50.927734 L 31.683594 52.947266 C 34.439594 54.051266 37.572297 53.984578 40.279297 52.767578 L 43.228516 51.441406 C 44.304516 50.958406 45 49.884078 45 48.705078 L 58.646484 45.160156 C 59.456484 44.952156 60.297984 45.125719 60.958984 45.636719 C 61.619984 46.147719 62 46.920672 62 47.763672 C 62 48.768672 61.446687 49.679578 60.554688 50.142578 L 39.251953 61.1875 C 37.217953 62.2405 34.793578 62.234969 32.767578 61.167969 L 20.179688 54.539062 C 18.875688 53.852063 17.438281 53.501953 15.988281 53.501953 C 15.258281 53.501953 14.526641 53.591484 13.806641 53.771484 L 7.2421875 55.410156 C 6.9421875 55.485156 6.6307188 55.419516 6.3867188 55.228516 C 6.1407187 55.037516 6 54.749453 6 54.439453 L 6 41.779297 C 6 41.272297 6.3798125 40.844156 6.8828125 40.785156 L 18.714844 39.394531 C 19.227344 39.334781 19.739 39.310547 20.25 39.322266 z M 9 42 C 8.448 42 8 42.448 8 43 C 8 43.552 8.448 44 9 44 L 11 44 C 11.552 44 12 43.552 12 43 C 12 42.448 11.552 42 11 42 L 9 42 z M 9 47 C 8.448 47 8 47.448 8 48 C 8 48.552 8.448 49 9 49 L 11 49 C 11.552 49 12 48.552 12 48 C 12 47.448 11.552 47 11 47 L 9 47 z M 9 52 C 8.448 52 8 52.448 8 53 C 8 53.552 8.448 54 9 54 L 11 54 C 11.552 54 12 53.552 12 53 C 12 52.448 11.552 52 11 52 L 9 52 z" fill="#ffffff"/>
</svg>
