<?xml version="1.0" encoding="utf-8"?>
<!-- Svg Vector Icons : http://www.onlinewebfonts.com/icon -->
<!DOCTYPE svg PUBLIC "-//W3C//DTD SVG 1.1//EN" "http://www.w3.org/Graphics/SVG/1.1/DTD/svg11.dtd">
<svg version="1.1" xmlns="http://www.w3.org/2000/svg" xmlns:xlink="http://www.w3.org/1999/xlink" x="0px" y="0px" viewBox="0 0 1000 1000" enable-background="new 0 0 1000 1000" xml:space="preserve">
<metadata> Svg Vector Icons : http://www.onlinewebfonts.com/icon </metadata>
<g><g><g><path d="M496.7,360.1c92.5,0,167.8-75.4,167.8-167.9c0-92.6-75.3-167.9-167.8-167.9c-92.6,0-168,75.3-168,167.9C328.8,284.7,404.1,360.1,496.7,360.1z M496.8,51c77.8,0,141.1,63.3,141.1,141.1c0,77.8-63.2,141.1-141.1,141.1c-77.9,0-141.2-63.3-141.2-141.1C355.6,114.4,418.8,51,496.8,51z" fill="#ffffff"/><path d="M459.6,236.7l-5.9-3.8L444,260l3.4,2.4c8.7,6.2,21.8,10.5,35.2,11.6v25h26.7v-26.7c23.5-5.5,39-23.7,39-46.6c0-23.3-12.5-38.2-41.7-50.1c-22.1-9.4-25.7-14.5-25.7-23c0-7.3,3.3-15.9,19.1-15.9c14.5,0,23.8,5.3,28.3,7.9l5.7,3.2l10.2-26.9l-4.2-2.4c-8.9-5-18.5-8-29.2-9V85.3h-26.8V111c-22.7,5.5-37,22.5-37,44.4c0,27.1,22.3,39.5,44.2,48.2c19,7.7,22.9,15.2,22.9,24.2c0,5.1-1.7,9.5-4.9,12.7C499.6,250.1,475.1,246.9,459.6,236.7z" fill="#ffffff"/><path d="M585.6,408.2c0,71.3,58.1,129.2,129.4,129.2c71.3,0,129.3-57.9,129.3-129.2c0-71.2-58-129.2-129.3-129.2C643.7,278.9,585.6,337,585.6,408.2z M715,301.9c58.6,0,106.2,47.7,106.2,106.3c0,58.6-47.6,106.3-106.2,106.3c-58.7,0-106.3-47.7-106.3-106.3C608.7,349.6,656.3,301.9,715,301.9z" fill="#ffffff"/><path d="M687.4,441.1l-5.9-3.9l-8.4,23.3l3.4,2.4c6.5,4.7,16.3,8,26.4,9v19.2h23l0.1-20.6c17.9-4.6,29.7-18.8,29.7-36.6c0-23.3-17.4-33.3-32.6-39.4c-16.1-6.9-18.7-10.5-18.7-16.4c0-7.2,4.5-10.8,13.2-10.8c10.7,0,17.4,3.8,21,5.9l5.6,3.2l8.6-22.9l-4.1-2.4c-6.6-3.7-13.6-6.1-21.6-6.9v-18.7H704v19.9c-17,4.6-28.2,18.1-28.2,34.8c0,21.4,17.5,31.2,34.5,38c13.9,5.5,16.6,10.8,16.6,17.3c0,3.5-1.1,6.5-3.2,8.6C716.7,450.9,698.8,448.6,687.4,441.1z" fill="#ffffff"/><path d="M955.8,591.3c-19.9-18.4-45.7-28.5-72.7-28.5c-29.7,0-58.4,12.5-78.5,34.3c-55.9,60.4-107.1,103.9-151.9,129.6c9.7-16,15.3-34.7,15.4-54.6c0.3-59-47.5-108-106.5-108.3l-279.9-0.5c-23.7,0-46.7,7.8-65.2,21.8l-10.7,8.1v-38.5H10v421h195.6v-51.7l74.8,34c14,6.4,28.9,9.6,44.3,9.6h244.4c164.8,0,302.9-128.5,392.4-225.1C1001.6,699.3,999,631.4,955.8,591.3z M938,720.7C852.6,813,721.4,935.6,569.1,935.6H324.8c-10.8,0-21.2-2.3-31-6.7l-78.5-35.7c-1.9-0.9-7.2-1.9-9.7-2.9V633.6l30.1-22.9c13-9.8,29.1-15.3,45.3-15.3l280.2,0.5c41.3,0.2,74.8,34.7,74.6,76c-0.2,41.1-33.8,73.7-74.9,73.7l-234.5-0.2h-0.1c-33.4,0-36.7,40.3-11.5,40.3h254.2c69.3,0,156.4-56.1,258.9-166.8c14.1-15.3,34.2-24,55-24c18.9,0,37,7.1,50.9,19.9C964.3,642.9,966.1,690.4,938,720.7z" fill="#ffffff"/></g></g><g></g><g></g><g></g><g></g><g></g><g></g><g></g><g></g><g></g><g></g><g></g><g></g><g></g><g></g><g></g></g>
</svg>