<?xml version="1.0" encoding="iso-8859-1"?>
<!-- Generator: Adobe Illustrator 16.0.0, SVG Export Plug-In . SVG Version: 6.00 Build 0)  -->
<!DOCTYPE svg PUBLIC "-//W3C//DTD SVG 1.1//EN" "http://www.w3.org/Graphics/SVG/1.1/DTD/svg11.dtd">
<svg version="1.1" id="Capa_1" xmlns="http://www.w3.org/2000/svg" xmlns:xlink="http://www.w3.org/1999/xlink" x="0px" y="0px"
	 width="185.872px" height="185.871px" viewBox="0 0 185.872 185.871" style="enable-background:new 0 0 185.872 185.871;"
	 xml:space="preserve">
<g>
	<g>
		<g>
			<g>
				<path d="M91.733,47.389c-18.389,0-33.305-5.964-33.305-13.317v13.317c0,7.365,14.916,13.32,33.305,13.32
					c18.396,0,33.302-5.956,33.302-13.32V34.071C125.029,41.431,110.128,47.389,91.733,47.389z" fill="#FFFFFF"/>
				<path d="M91.733,3.52c-18.389,0-33.305,5.961-33.305,13.323v13.32c0,7.365,14.916,13.317,33.305,13.317
					c18.396,0,33.302-5.961,33.302-13.317v-13.32C125.029,9.48,110.128,3.52,91.733,3.52z M91.733,26.825
					c-18.301,0-29.968-5.915-29.968-9.989c0-4.076,11.667-9.995,29.968-9.995c18.298,0,29.959,5.919,29.959,9.995
					C121.686,20.91,110.031,26.825,91.733,26.825z" fill="#FFFFFF"/>
				<path d="M94.272,15.308c-3.848-0.621-5.44-1.029-5.44-1.662c0-0.536,0.95-1.087,3.891-1.087c3.255,0,5.35,0.451,6.524,0.654
					l1.322-2.18c-1.505-0.308-3.532-0.581-6.577-0.636V8.695h-4.436v1.833c-4.844,0.405-7.651,1.739-7.651,3.44
					c0,1.878,3.297,2.844,8.15,3.535c3.35,0.481,4.802,0.944,4.802,1.678c0,0.779-1.766,1.199-4.354,1.199
					c-2.936,0-5.605-0.401-7.508-0.849l-1.352,2.256c1.696,0.426,4.658,0.773,7.693,0.837v1.833h4.424v-1.964
					c5.213-0.387,8.062-1.857,8.062-3.581C101.823,17.187,99.655,16.127,94.272,15.308z" fill="#FFFFFF"/>
				<path d="M58.428,51.587c0.012,0,0.034,0.006,0.052,0.013c0-0.07-0.052-0.131-0.052-0.195V51.587z" fill="#FFFFFF"/>
				<path d="M91.733,64.73c-6.929,0-13.351-0.843-18.675-2.29c1.09,2.016,1.726,4.235,1.726,6.686v7.015
					c4.99,1.19,10.732,1.915,16.949,1.915c18.396,0,33.302-5.961,33.302-13.326V51.404C125.029,58.77,110.128,64.73,91.733,64.73z"
					 fill="#FFFFFF"/>
				<path d="M91.733,82.069c-6.217,0-11.959-0.728-16.949-1.912v9.42c8.126-4.926,20.371-7.276,32.117-7.276
					c5.943,0,12.008,0.612,17.61,1.827c0.262-0.673,0.518-1.352,0.518-2.064V68.74C125.029,76.102,110.128,82.069,91.733,82.069z" fill="#FFFFFF"/>
			</g>
			<g>
				<path d="M33.301,99.68C14.912,99.68,0,93.712,0,86.359v13.32c0,7.367,14.912,13.316,33.301,13.316
					c18.396,0,33.308-5.949,33.308-13.316v-13.32C66.603,93.712,51.697,99.68,33.301,99.68z" fill="#FFFFFF"/>
				<path d="M33.301,117.009C14.912,117.009,0,111.054,0,103.698v13.311c0,7.368,14.912,13.329,33.301,13.329
					c18.396,0,33.308-5.961,33.308-13.329v-13.311C66.603,111.06,51.697,117.009,33.301,117.009z" fill="#FFFFFF"/>
				<path d="M33.301,134.351C14.912,134.351,0,128.396,0,121.034v13.316c0,7.368,14.912,13.323,33.301,13.323
					c18.396,0,33.308-5.961,33.308-13.323v-13.316C66.603,128.396,51.697,134.351,33.301,134.351z" fill="#FFFFFF"/>
				<path d="M33.301,151.693C14.912,151.693,0,145.726,0,138.369v13.324c0,7.355,14.912,13.322,33.301,13.322
					c18.396,0,33.308-5.967,33.308-13.322v-13.324C66.603,145.726,51.697,151.693,33.301,151.693z" fill="#FFFFFF"/>
				<path d="M33.301,169.028C14.912,169.028,0,163.067,0,155.712v13.316c0,7.362,14.912,13.323,33.301,13.323
					c18.396,0,33.308-5.961,33.308-13.323v-13.316C66.603,163.067,51.697,169.028,33.301,169.028z" fill="#FFFFFF"/>
				<path d="M33.301,55.801C14.912,55.801,0,61.762,0,69.121v13.323c0,7.365,14.912,13.32,33.301,13.32
					c18.396,0,33.308-5.961,33.308-13.32V69.121C66.603,61.762,51.697,55.801,33.301,55.801z M33.301,79.116
					c-18.295,0-29.968-5.919-29.968-9.995c0-4.08,11.673-9.989,29.968-9.989c18.301,0,29.974,5.909,29.974,9.989
					C63.269,73.197,51.596,79.116,33.301,79.116z" fill="#FFFFFF"/>
				<path d="M35.837,67.599c-3.845-0.624-5.435-1.029-5.435-1.666c0-0.536,0.953-1.083,3.891-1.083c3.255,0,5.349,0.447,6.528,0.654
					l1.315-2.183c-1.504-0.304-3.535-0.579-6.567-0.636v-1.696h-4.445v1.833c-4.844,0.405-7.651,1.742-7.651,3.443
					c0,1.87,3.306,2.844,8.15,3.535c3.349,0.487,4.801,0.947,4.801,1.684c0,0.779-1.766,1.196-4.354,1.196
					c-2.935,0-5.599-0.398-7.499-0.853l-1.361,2.256c1.702,0.429,4.664,0.779,7.693,0.834v1.836h4.436v-1.967
					c5.206-0.387,8.056-1.852,8.056-3.578C43.397,69.474,41.227,68.408,35.837,67.599z" fill="#FFFFFF"/>
			</g>
			<g>
				<path d="M106.901,134.351c-18.386,0-33.301-5.955-33.301-13.316v13.316c0,7.368,14.916,13.323,33.301,13.323
					c18.396,0,33.308-5.955,33.308-13.323v-13.316C140.208,128.396,125.296,134.351,106.901,134.351z" fill="#FFFFFF"/>
				<path d="M106.901,151.687c-18.386,0-33.301-5.968-33.301-13.323v13.323c0,7.362,14.916,13.329,33.301,13.329
					c18.396,0,33.308-5.967,33.308-13.329v-13.323C140.208,145.726,125.296,151.687,106.901,151.687z" fill="#FFFFFF"/>
				<path d="M106.901,169.028c-18.386,0-33.301-5.961-33.301-13.316v13.316c0,7.356,14.916,13.323,33.301,13.323
					c18.396,0,33.308-5.967,33.308-13.323v-13.316C140.208,163.067,125.296,169.028,106.901,169.028z" fill="#FFFFFF"/>
				<path d="M106.901,90.476c-18.386,0-33.301,5.967-33.301,13.326v13.317c0,7.355,14.916,13.322,33.301,13.322
					c18.396,0,33.308-5.967,33.308-13.322v-13.317C140.208,96.437,125.296,90.476,106.901,90.476z M106.901,113.788
					c-18.298,0-29.964-5.913-29.964-9.993c0-4.079,11.667-9.989,29.964-9.989c18.305,0,29.971,5.91,29.971,9.989
					C136.872,107.875,125.206,113.788,106.901,113.788z" fill="#FFFFFF"/>
				<path d="M109.44,102.268c-3.848-0.615-5.438-1.023-5.438-1.663c0-0.536,0.95-1.071,3.892-1.071c3.257,0,5.34,0.444,6.527,0.651
					l1.321-2.187c-1.51-0.304-3.544-0.578-6.57-0.639v-1.696h-4.445v1.836c-4.847,0.402-7.654,1.735-7.654,3.44
					c0,1.869,3.301,2.838,8.154,3.525c3.343,0.487,4.804,0.95,4.804,1.688c0,0.779-1.766,1.199-4.359,1.199
					c-2.936,0-5.603-0.408-7.502-0.853l-1.352,2.259c1.692,0.433,4.651,0.779,7.69,0.834v1.834h4.427v-1.967
					c5.206-0.385,8.062-1.852,8.062-3.575C116.997,104.143,114.83,103.083,109.44,102.268z" fill="#FFFFFF"/>
			</g>
		</g>
		<polygon points="153.995,165.99 172.091,165.99 172.091,60.982 185.872,60.982 163.043,21.649 140.208,60.982 153.995,60.982 		
			" fill="#FFFFFF"/>
	</g>
</g>
<g>
</g>
<g>
</g>
<g>
</g>
<g>
</g>
<g>
</g>
<g>
</g>
<g>
</g>
<g>
</g>
<g>
</g>
<g>
</g>
<g>
</g>
<g>
</g>
<g>
</g>
<g>
</g>
<g>
</g>
</svg>
