<?xml version="1.0" encoding="utf-8"?>
<!-- Svg Vector Icons : http://www.onlinewebfonts.com/icon -->
<!DOCTYPE svg PUBLIC "-//W3C//DTD SVG 1.1//EN" "http://www.w3.org/Graphics/SVG/1.1/DTD/svg11.dtd">
<svg version="1.1" xmlns="http://www.w3.org/2000/svg" xmlns:xlink="http://www.w3.org/1999/xlink" x="0px" y="0px" viewBox="0 0 1000 1000" enable-background="new 0 0 1000 1000" xml:space="preserve">
<metadata> Svg Vector Icons : http://www.onlinewebfonts.com/icon </metadata>
<g><path d="M849.1,990H264.3c-22.8,0-41.3-18.5-41.3-41.3c0-22.8,18.5-41.3,41.3-41.3h584.8c2.3,0,4.1-1.8,4.1-4V96.7c0-2.2-1.9-4-4.1-4H264.3c-2.3,0-4,1.8-4,4v726c0,22.8-18.5,41.3-41.3,41.3c-22.8,0-41.3-18.5-41.3-41.3v-726c0-47.8,38.9-86.7,86.7-86.7h584.8c47.9,0,86.8,38.9,86.8,86.7v806.6C935.8,951.1,896.9,990,849.1,990L849.1,990z" fill="#ffffff"/><path d="M513.2,410.4H334.5c-11.4,0-20.7-9.2-20.7-20.7c0-11.4,9.2-20.7,20.7-20.7h178.8c11.4,0,20.7,9.2,20.7,20.7C533.9,401.1,524.7,410.4,513.2,410.4L513.2,410.4z" fill="#ffffff"/><path d="M513.2,517.1H334.5c-11.4,0-20.7-9.2-20.7-20.7s9.2-20.7,20.7-20.7h178.8c11.4,0,20.7,9.2,20.7,20.7C533.9,507.9,524.7,517.1,513.2,517.1L513.2,517.1z" fill="#ffffff"/><path d="M513.2,623.9H334.5c-11.4,0-20.7-9.2-20.7-20.7c0-11.4,9.2-20.7,20.7-20.7h178.8c11.4,0,20.7,9.2,20.7,20.7C533.9,614.6,524.7,623.9,513.2,623.9L513.2,623.9z" fill="#ffffff"/><path d="M513.2,730.6H334.5c-11.4,0-20.7-9.2-20.7-20.7c0-11.4,9.2-20.7,20.7-20.7h178.8c11.4,0,20.7,9.2,20.7,20.7C533.9,721.3,524.7,730.6,513.2,730.6L513.2,730.6z" fill="#ffffff"/><path d="M513.2,837.3H334.5c-11.4,0-20.7-9.2-20.7-20.7c0-11.4,9.2-20.7,20.7-20.7h178.8c11.4,0,20.7,9.2,20.7,20.7C533.9,828.1,524.7,837.3,513.2,837.3L513.2,837.3z" fill="#ffffff"/><path d="M768.6,410.4H589.8c-11.4,0-20.7-9.2-20.7-20.7c0-11.4,9.2-20.7,20.7-20.7h178.9c11.4,0,20.7,9.2,20.7,20.7C789.3,401.1,780,410.4,768.6,410.4L768.6,410.4z" fill="#ffffff"/><path d="M768.6,517.1H589.8c-11.4,0-20.7-9.2-20.7-20.7s9.2-20.7,20.7-20.7h178.9c11.4,0,20.7,9.2,20.7,20.7C789.3,507.9,780,517.1,768.6,517.1L768.6,517.1z" fill="#ffffff"/><path d="M768.6,623.9H589.8c-11.4,0-20.7-9.2-20.7-20.7c0-11.4,9.2-20.7,20.7-20.7h178.9c11.4,0,20.7,9.2,20.7,20.7C789.3,614.6,780,623.9,768.6,623.9L768.6,623.9z" fill="#ffffff"/><path d="M768.6,730.6H589.8c-11.4,0-20.7-9.2-20.7-20.7c0-11.4,9.2-20.7,20.7-20.7h178.9c11.4,0,20.7,9.2,20.7,20.7C789.3,721.3,780,730.6,768.6,730.6L768.6,730.6z" fill="#ffffff"/><path d="M768.6,837.3H589.8c-11.4,0-20.7-9.2-20.7-20.7c0-11.4,9.2-20.7,20.7-20.7h178.9c11.4,0,20.7,9.2,20.7,20.7C789.3,828.1,780,837.3,768.6,837.3L768.6,837.3z" fill="#ffffff"/><path d="M498.7,990H150.8c-47.8,0-86.7-38.9-86.7-86.7V222.7c0-21.9,1.6-46.8,20.3-65.5c21.3-21.2,47.9-21.3,94.4-21.1l23.7,0c0.1,0,0.2,0,0.3,0c22.7,0,41.2,18.3,41.3,41c0.2,22.8-18.2,41.4-41,41.6l-24.4,0c-11.5,0-23.4,0-31.9,0.4c0,1.1,0,2.3,0,3.6v680.6c0,2.2,1.8,4,4,4h347.9c22.8,0,41.3,18.5,41.3,41.3C540,971.5,521.5,990,498.7,990L498.7,990z" fill="#ffffff"/><path d="M768.6,296.3H337c-11.4,0-20.7-9.2-20.7-20.7V163c0-11.4,9.2-20.7,20.7-20.7h431.6c11.4,0,20.7,9.2,20.7,20.7v112.7C789.3,287.1,780,296.3,768.6,296.3L768.6,296.3z M357.7,255h390.2v-71.4H357.7V255L357.7,255z" fill="#ffffff"/></g>
</svg>