<?xml version="1.0"?>
<svg xmlns="http://www.w3.org/2000/svg" viewBox="0 0 64 64">
    <path d="M 11 4 C 9.346 4 8 5.346 8 7 L 8 52 L 4 52 C 2.897 52 2 52.897 2 54 L 2 56 C 2 58.206 3.794 60 6 60 L 9 60 L 54 60 C 56.206 60 58 58.206 58 56 L 58 7 C 58 5.346 56.654 4 55 4 L 11 4 z M 11 6 L 55 6 C 55.552 6 56 6.448 56 7 L 56 56 C 56 57.103 55.103 58 54 58 C 52.897 58 52 57.103 52 56 L 52 54 C 52 52.897 51.103 52 50 52 L 10 52 L 10 7 C 10 6.448 10.448 6 11 6 z M 20 12 C 19.447 12 19 12.447 19 13 L 19 14 C 17.346 14 16 15.346 16 17 L 16 20 C 16 21.654 17.346 23 19 23 L 21 23 C 21.552 23 22 23.448 22 24 L 22 27 C 22 27.552 21.552 28 21 28 L 19 28 C 18.448 28 18 27.552 18 27 L 18 26 C 18 25.447 17.553 25 17 25 C 16.447 25 16 25.447 16 26 L 16 27 C 16 28.654 17.346 30 19 30 L 19 31 C 19 31.553 19.447 32 20 32 C 20.553 32 21 31.553 21 31 L 21 30 C 22.654 30 24 28.654 24 27 L 24 24 C 24 22.346 22.654 21 21 21 L 19 21 C 18.448 21 18 20.552 18 20 L 18 17 C 18 16.448 18.448 16 19 16 L 21 16 C 21.552 16 22 16.448 22 17 L 22 18 C 22 18.553 22.447 19 23 19 C 23.553 19 24 18.553 24 18 L 24 17 C 24 15.346 22.654 14 21 14 L 21 13 C 21 12.447 20.553 12 20 12 z M 29 14 C 28.447 14 28 14.447 28 15 C 28 15.553 28.447 16 29 16 L 37 16 C 37.553 16 38 15.553 38 15 C 38 14.447 37.553 14 37 14 L 29 14 z M 41 14 C 40.447 14 40 14.447 40 15 C 40 15.553 40.447 16 41 16 L 47 16 C 47.553 16 48 15.553 48 15 C 48 14.447 47.553 14 47 14 L 41 14 z M 29 18 C 28.447 18 28 18.447 28 19 C 28 19.553 28.447 20 29 20 L 43 20 C 43.553 20 44 19.553 44 19 C 44 18.447 43.553 18 43 18 L 29 18 z M 29 28 C 28.447 28 28 28.447 28 29 C 28 29.553 28.447 30 29 30 L 47 30 C 47.553 30 48 29.553 48 29 C 48 28.447 47.553 28 47 28 L 29 28 z M 29 32 C 28.447 32 28 32.447 28 33 C 28 33.553 28.447 34 29 34 L 37 34 C 37.553 34 38 33.553 38 33 C 38 32.447 37.553 32 37 32 L 29 32 z M 41 32 C 40.447 32 40 32.447 40 33 C 40 33.553 40.447 34 41 34 L 43 34 C 43.553 34 44 33.553 44 33 C 44 32.447 43.553 32 43 32 L 41 32 z M 14 44 C 13.447 44 13 44.447 13 45 L 13 47 C 13 47.553 13.447 48 14 48 C 14.553 48 15 47.553 15 47 L 15 45 C 15 44.447 14.553 44 14 44 z M 19 44 C 18.447 44 18 44.447 18 45 L 18 47 C 18 47.553 18.447 48 19 48 C 19.553 48 20 47.553 20 47 L 20 45 C 20 44.447 19.553 44 19 44 z M 24 44 C 23.447 44 23 44.447 23 45 L 23 47 C 23 47.553 23.447 48 24 48 C 24.553 48 25 47.553 25 47 L 25 45 C 25 44.447 24.553 44 24 44 z M 29 44 C 28.447 44 28 44.447 28 45 L 28 47 C 28 47.553 28.447 48 29 48 C 29.553 48 30 47.553 30 47 L 30 45 C 30 44.447 29.553 44 29 44 z M 34 44 C 33.447 44 33 44.447 33 45 L 33 47 C 33 47.553 33.447 48 34 48 C 34.553 48 35 47.553 35 47 L 35 45 C 35 44.447 34.553 44 34 44 z M 39 44 C 38.447 44 38 44.447 38 45 L 38 47 C 38 47.553 38.447 48 39 48 C 39.553 48 40 47.553 40 47 L 40 45 C 40 44.447 39.553 44 39 44 z M 44 44 C 43.447 44 43 44.447 43 45 L 43 47 C 43 47.553 43.447 48 44 48 C 44.553 48 45 47.553 45 47 L 45 45 C 45 44.447 44.553 44 44 44 z M 49 44 C 48.447 44 48 44.447 48 45 L 48 47 C 48 47.553 48.447 48 49 48 C 49.553 48 50 47.553 50 47 L 50 45 C 50 44.447 49.553 44 49 44 z M 54 44 C 53.447 44 53 44.447 53 45 L 53 47 C 53 47.553 53.447 48 54 48 C 54.553 48 55 47.553 55 47 L 55 45 C 55 44.447 54.553 44 54 44 z M 4 54 L 50 54 L 50 56 C 50 56.732 50.212641 57.409 50.556641 58 L 9 58 L 6 58 C 4.897 58 4 57.103 4 56 L 4 54 z" fill="#FFFFFF"/>
</svg>
