<?xml version="1.0"?>
<svg xmlns="http://www.w3.org/2000/svg" viewBox="0 0 50 50">
    <path style="text-indent:0;text-align:start;line-height:normal;text-transform:none;block-progression:tb;-inkscape-font-specification:Sans" d="M 26.9375 1.96875 A 1.0001 1.0001 0 0 0 26.8125 2 A 1.0001 1.0001 0 0 0 26.125 2.5 L 25 4.4375 L 23.875 2.5 A 1.0001 1.0001 0 0 0 22.84375 2 A 1.0001 1.0001 0 0 0 22.125 3.5 L 23.84375 6.40625 L 20.5625 12.03125 C 20.227388 12.082013 19.915852 12.190195 19.625 12.34375 L 13.875 2.5 A 1.0001 1.0001 0 0 0 12.84375 2 A 1.0001 1.0001 0 0 0 12.125 3.5 L 18.21875 13.90625 C 18.080983 14.24849 18 14.611639 18 15 L 18 18.625 C 12.678677 21.226676 9 26.686971 9 33 C 9 41.82448 16.17552 49 25 49 C 33.82448 49 41 41.82448 41 33 C 41 26.686971 37.321323 21.226676 32 18.625 L 32 14.6875 A 1.0001 1.0001 0 0 0 31.75 14 L 37.875 3.5 A 1.0077822 1.0077822 0 0 0 36.125 2.5 L 29.40625 14 L 21.75 14 L 21.90625 13.71875 A 1.0001 1.0001 0 0 0 22.15625 13.28125 L 25.65625 7.3125 A 1.0001 1.0001 0 0 0 25.71875 7.21875 A 1.0001 1.0001 0 0 0 26 6.71875 A 1.0001 1.0001 0 0 0 26.03125 6.625 L 27.875 3.5 A 1.0001 1.0001 0 0 0 26.9375 1.96875 z M 20 16 L 30 16 L 30 17.8125 C 28.423683 17.291857 26.748867 17 25 17 C 23.251133 17 21.576317 17.291857 20 17.8125 L 20 16 z M 25 19 C 26.911791 19 28.747517 19.371557 30.40625 20.0625 A 1.0001 1.0001 0 0 0 30.4375 20.09375 C 30.446354 20.097467 30.459905 20.090015 30.46875 20.09375 A 1.0001 1.0001 0 0 0 30.625 20.1875 C 35.561839 22.349041 39 27.257164 39 33 C 39 40.74352 32.74352 47 25 47 C 17.25648 47 11 40.74352 11 33 C 11 27.282108 14.410078 22.394767 19.3125 20.21875 A 1.0001 1.0001 0 0 0 19.53125 20.09375 C 19.552099 20.084946 19.57285 20.071206 19.59375 20.0625 A 1.0001 1.0001 0 0 0 19.65625 20.03125 C 21.298113 19.356728 23.112298 19 25 19 z M 25 21 C 18.384534 21 13 26.384534 13 33 C 13 39.615466 18.384534 45 25 45 C 31.615466 45 37 39.615466 37 33 C 37 26.384534 31.615466 21 25 21 z M 25 23 C 30.534534 23 35 27.465466 35 33 C 35 38.534534 30.534534 43 25 43 C 19.465466 43 15 38.534534 15 33 C 15 27.465466 19.465466 23 25 23 z M 20 28 L 20 30 L 22 30 L 22 36 L 20 36 L 20 38 L 30 38 L 30 36 L 28 36 L 28 30 L 30 30 L 30 28 L 20 28 z M 24 30 L 26 30 L 26 36 L 24 36 L 24 30 z" fill="#ffffff"/>
</svg>
