<?xml version="1.0" encoding="utf-8"?>
<!-- Svg Vector Icons : http://www.onlinewebfonts.com/icon -->
<!DOCTYPE svg PUBLIC "-//W3C//DTD SVG 1.1//EN" "http://www.w3.org/Graphics/SVG/1.1/DTD/svg11.dtd">
<svg version="1.1" xmlns="http://www.w3.org/2000/svg" xmlns:xlink="http://www.w3.org/1999/xlink" x="0px" y="0px" viewBox="0 0 1000 1000" enable-background="new 0 0 1000 1000" xml:space="preserve">
<metadata> Svg Vector Icons : http://www.onlinewebfonts.com/icon </metadata>
<g><g transform="translate(0.000000,512.000000) scale(0.100000,-0.100000)"><path d="M4190.5,4992.1c-57.5-21.1-915.8-304.6-1906.4-632.3c-990.5-327.6-1835.5-613.1-1879.5-632.3c-199.3-90.1-302.7-245.2-304.6-452.2c0-126.5,49.8-281.6,958-2979.3c691.7-2055.8,973.3-2868.1,1015.4-2929.5c30.7-47.9,99.6-113,151.4-145.6c157.1-95.8,260.6-84.3,772.1,86.2c233.7,78.5,429.2,137.9,433,134.1c3.8-5.8,155.2-281.7,337.2-613.1c182-331.4,352.5-626.5,379.4-655.3c86.2-92,107.3-93.9,810.4-88.1l661,5.8l105.4,49.8c59.4,26.8,235.7,145.6,392.8,264.4l287.4,212.7l9.6-310.4c9.6-341,26.8-400.4,128.4-471.3c113-76.6,1044.2-563.3,1128.5-590.1c49.8-15.3,124.5-26.8,166.7-26.8c42.2,0,465.6,51.7,940.7,116.9c963.7,130.3,1003.9,139.9,1078.7,275.9c44.1,76.6,44.1,78.5,44.1,1061.4c0,691.6-5.7,1005.9-23,1057.6c-40.2,139.9-126.4,212.7-488.6,410c-187.8,101.5-348.7,191.6-356.3,199.3c-7.7,7.7,183.9,988.6,427.2,2178.4C9700.7,1710.1,9900,2717.9,9900,2758.1c0,185.8-93.9,354.4-243.3,434.9c-74.7,40.2-379.3,109.2-1605.5,358.3c-2172.7,438.7-2486.9,500.1-2580.8,500.1c-97.7,0-264.4-76.6-320-145.6l-36.4-46l-147.5,438.7c-162.9,492.4-206.9,571-371.7,659.1C4466.4,5028.5,4330.4,5040,4190.5,4992.1z M4437.7,4612.7c46-44.1,95.8-178.2,306.5-804.7l251-751l-421.5-2007.9c-233.8-1103.6-427.3-2027.1-433-2050c-7.7-24.9-178.2-166.7-459.8-379.4c-300.8-226.1-467.5-364-502-415.8c-65.2-99.6-65.2-193.5,3.8-310.4c26.8-46,49.8-92,49.8-101.6s-166.7-70.9-371.7-139.9c-337.2-111.1-375.5-118.8-427.3-97.7c-32.6,13.4-67.1,42.1-80.5,65.1c-51.7,103.5-1879.5,5579.2-1879.5,5634.8c0,40.2,15.3,76.6,44.1,103.5c26.8,24.9,697.4,260.6,1919.8,672.5c1032.7,346.8,1892.9,632.3,1910.2,632.3C4366.8,4664.5,4407,4641.5,4437.7,4612.7z M7476.3,3292.7c1285.6-262.5,1950.4-404.3,1981.1-427.3c26.8-17.2,53.7-53.6,63.2-80.5c9.6-32.6-113-666.7-413.8-2140.1c-233.7-1151.5-431.1-2096-434.9-2097.9c-3.8-3.8-78.6-1.9-164.8,1.9l-155.2,7.7l-11.5,61.3c-13.4,72.8-137.9,266.3-228,354.4l-67.1,63.2l-120.7-59.4c-298.9-149.5-442.6-348.7-362.1-502c11.5-19.2,13.4-36.4,5.7-36.4c-7.6,0-157.1-21.1-331.4-47.9c-172.4-24.9-316.1-44.1-318-42.1c-11.5,11.5-486.7,883.3-486.7,892.8c0,5.7,38.3-26.8,84.3-72.8l82.4-80.5l122.6,49.8C7252.2-638.8,7669.8-347.6,7871-60.2c224.2,318,222.3,638-3.8,883.2c-115,124.5-243.3,185.8-413.9,197.3c-168.6,11.5-285.5-19.2-408.1-103.5l-90-61.3l-74.7,107.3c-279.7,408.1-887.1,358.3-1095.9-88.1c-46-95.8-51.7-132.2-51.7-300.8c0-203.1,36.4-348.7,139.9-555.6c65.1-132.2,228-379.3,339.1-515.4c55.6-69,76.6-107.3,55.6-97.7C6095-523.9,6095-522,5466.5-535.4c-678.2-15.3-674.4-15.3-850.7-147.5c-55.6-44.1-107.3-74.7-111.1-69c-5.7,3.8,95.8,521.1,222.2,1145.7c128.4,626.5,325.7,1603.6,442.6,2172.7c193.5,956,212.7,1038.4,258.7,1078.7c26.8,23,63.2,42.2,80.5,42.2C5525.9,3687.3,6411.1,3509.2,7476.3,3292.7z M5932.1-746.1c-38.3-34.5-1322-963.7-1368-992.5c-57.5-32.6-101.5-34.5-563.3-30.6l-500.1,5.7l653.3,488.6c360.2,268.2,678.2,498.1,705.1,511.6c34.5,15.3,205,23,565.2,24.9C5707.9-738.5,5935.9-742.3,5932.1-746.1z M6464.7-1246.2c130.3-231.8,235.7-425.3,235.7-431.1c0-5.8-42.1-24.9-93.9-44.1c-53.6-19.2-116.9-59.4-143.7-92l-49.8-59.4v-626.5v-628.4l-310.4-229.9C5683-3666,5694.5-3658.3,5662-3625.8c-55.5,57.5-915.8,1659.2-915.8,1707.1c0,59.4,0,59.4,823.9,661c331.5,243.3,616.9,440.7,632.3,436.8C6217.6-822.7,6336.4-1014.3,6464.7-1246.2z M9024.4-1889.9c239.5-130.3,434.9-241.4,434.9-247.2c0-19.2-1680.3-228-1726.3-214.6c-70.9,21.1-900.5,473.2-879.4,479c63.2,23,1596,229.9,1659.2,226.1C8570.3-1650.4,8708.3-1715.6,9024.4-1889.9z M3818.8-2355.5c49.8-49.8,65.1-82.4,65.1-132.2c0-42.1-11.5-70.9-28.7-78.5c-99.6-38.3-266.3,168.6-201.2,247.1C3692.4-2273.1,3749.9-2286.5,3818.8-2355.5z M9689.2-2367c13.4-24.9,19.2-341,15.3-977.1c-5.7-829.6-9.6-940.7-36.4-967.5c-23-23-239.5-59.4-862.2-145.6c-457.9-61.3-860.3-113-892.8-113H7850v984.8c0,887.1,3.8,986.7,30.6,1009.7c28.7,23,1544.3,237.6,1726.3,245.2C9650.9-2328.7,9673.9-2340.2,9689.2-2367z M6788.5-2439.8c103.5-69,74.7-348.7-28.7-293.1c-53.6,28.7-80.5,69-90,139.9C6650.6-2474.3,6713.8-2390,6788.5-2439.8z M7457.2-2807.7c34.5-67.1,38.3-193.5,5.7-226.1c-61.3-61.3-147.5,5.7-162.9,126.4c-13.4,95.8,19.2,157.1,80.5,157.1C7413.1-2750.2,7436.1-2767.4,7457.2-2807.7z M7120-3200.4c53.6-69,67.1-151.4,36.4-214.6c-32.6-69-86.2-69-137.9,0c-67.1,90-42.1,262.5,36.4,262.5C7070.2-3152.5,7098.9-3173.6,7120-3200.4z M5091-3355.6c44.1-51.7,57.5-84.3,53.6-128.4c-3.8-51.7-15.3-63.2-59.4-67.1c-92-11.5-212.7,147.5-178.2,235.7C4928.2-3259.8,5023.9-3280.9,5091-3355.6z M6788.5-3589.4c67.1-44.1,90.1-226.1,34.5-279.7c-40.2-40.2-51.7-38.3-101.6,15.3C6616.1-3742.6,6673.6-3512.7,6788.5-3589.4z M7457.2-3957.2c34.5-67.1,38.3-193.5,5.7-226.1c-61.3-61.3-147.5,5.7-162.9,126.4c-13.4,95.8,19.2,157.1,80.5,157.1C7413.1-3899.7,7436.1-3917,7457.2-3957.2z"/><path d="M1217,3129.8c-30.6-17.2-34.5-57.5-34.5-390.8v-371.7l44.1,15.3c36.4,13.4,44.1,32.6,51.7,136l9.6,120.7l95.8,34.5c53.6,19.2,105.4,34.5,118.8,34.5c11.5,1.9,49.8-36.4,84.3-84.3c59.4-82.4,115-109.2,141.8-67.1c15.3,24.9-413.8,592-450.2,592C1263,3149,1234.2,3141.3,1217,3129.8z M1381.8,2905.7c51.7-67.1,90.1-124.5,86.2-126.5c-3.8-3.8-47.9-19.2-95.8-36.4l-90-28.7l-11.5,69c-17.2,105.4-13.4,281.6,3.8,262.5C1284,3034,1331.9,2972.7,1381.8,2905.7z"/><path d="M1500.5,2083.7c-19.2-93.9-36.4-182-42.2-199.3c-5.7-21.1,42.2-78.6,145.6-170.5c84.3-76.6,159-136,162.9-130.3c5.7,3.8,26.8,95.8,47.9,203.1l40.2,193.5l-82.4,74.7c-132.2,120.7-220.3,195.4-229.9,195.4C1536.9,2250.4,1517.8,2175.7,1500.5,2083.7z"/><path d="M3021.8,2238.9c0-9.6-55.6-318-124.5-685.9c-67.1-369.8-120.7-672.5-118.8-674.4c1.9-1.9,231.8-212.7,511.6-465.6C3753.7-10.4,3797.8-46.8,3811.2-6.6c34.5,111.1,245.2,1325.8,231.8,1337.3c-7.7,7.7-222.2,201.2-475.1,431.1c-252.9,229.9-479,434.9-502,456C3041,2238.9,3021.8,2248.5,3021.8,2238.9z"/><path d="M5845.9,2945.9c-59.4-103.5-147.5-251-191.6-325.7c-46-76.6-74.7-139.9-65.1-139.9c7.7,0,28.7-5.7,46-11.5c19.2-7.7,46,19.2,88.1,95.8c49.8,88.1,69,105.4,101.5,97.7c23-5.7,76.6-17.2,118.8-24.9c80.5-15.3,80.5-17.3,116.9-208.8c5.8-34.5,74.7-80.5,92-59.4c5.7,5.7-84.3,728.1-92,737.6c0,1.9-24.9,7.7-51.7,15.3C5960.8,3133.6,5951.3,3124.1,5845.9,2945.9z M6018.3,2800.3c11.5-101.6,9.6-111.1-21.1-101.6c-19.2,5.8-67.1,15.3-105.4,23l-72.8,11.5l82.4,149.4c80.5,149.4,80.5,151.4,92,90C6001.1,2938.2,6010.7,2861.6,6018.3,2800.3z"/><path d="M5547,2254.2c-67.1-7.7-160.9-99.6-174.3-170.5c-26.8-130.3,59.4-323.8,214.6-490.5c99.6-105.4,116.9-107.3,289.3-7.7c126.4,70.9,241.4,174.4,279.7,245.2c57.5,113,19.2,272.1-78.5,323.8c-63.2,34.5-170.5,30.7-226.1-5.7c-38.3-26.8-46-24.9-90.1,26.8C5709.8,2237,5631.3,2265.7,5547,2254.2z"/><path d="M4751.9-1182.9c-92-30.7-193.5-120.7-166.7-149.4c44.1-44.1,297,103.5,266.3,153.3C4838.1-1156.1,4834.3-1158,4751.9-1182.9z"/><path d="M6054.7-1274.9c-147.5-59.4-76.6-325.7,88.1-325.7c166.7,0,182,266.3,19.2,323.8c-34.5,11.5-61.3,21.1-63.2,19.2C6096.9-1257.7,6077.7-1265.3,6054.7-1274.9z"/><path d="M5200.2-1907.2c-42.1-32.6-51.7-57.5-51.7-122.6c0-160.9,178.2-247.2,268.2-132.2C5527.8-2020.2,5338.2-1799.9,5200.2-1907.2z"/><path d="M5752-2951.4c-132.2-130.3,49.8-373.6,199.3-264.4c36.4,28.7,51.7,57.5,55.5,118.8c5.7,67.1-3.8,88.1-51.7,136C5886.1-2890,5815.2-2886.2,5752-2951.4z"/><path d="M8233.1-1755.8c-47.9-19.2-47.9-21.1-9.6-47.9c26.8-21.1,72.8-28.7,157.1-23c136,7.7,164.8,24.9,113,65.1C8449.6-1730.9,8304-1727.1,8233.1-1755.8z"/><path d="M7735-1813.3c-46-19.2-46-21.1-11.5-47.9c47.9-34.5,222.2-34.5,270.1,0c34.5,24.9,34.5,26.8-5.7,47.9C7940-1788.4,7800.1-1788.4,7735-1813.3z"/><path d="M7236.9-1888c-53.7-32.6,13.4-67.1,134.1-67.1c120.7,0,187.8,34.5,134.1,67.1C7468.7-1865,7273.3-1865,7236.9-1888z"/><path d="M8545.4-1907.2c-93.9-40.2-38.3-76.6,115-76.6c115,0,168.6,24.9,134.1,59.4C8765.8-1895.7,8599.1-1882.3,8545.4-1907.2z"/><path d="M8022.4-1983.8c-53.6-32.6,13.4-67.1,134.1-67.1c120.7,0,187.8,34.5,134.1,67.1C8254.2-1960.8,8058.8-1960.8,8022.4-1983.8z"/><path d="M7549.1-2041.3c-93.9-40.2-38.3-76.6,115-76.6c115,0,168.6,24.9,134.1,59.4C7769.5-2029.8,7602.8-2016.4,7549.1-2041.3z"/><path d="M8796.4-2087.3c-34.5-26.8-34.5-28.7,21.1-49.8c111.1-44.1,337.2,7.7,258.7,57.5C9032.1-2050.9,8838.6-2056.6,8796.4-2087.3z"/><path d="M8334.7-2137.1c-93.9-40.2-38.3-76.6,115-76.6c115,0,168.6,24.9,134.1,59.4C8555-2125.6,8388.3-2112.2,8334.7-2137.1z"/><path d="M7850-2192.6c-132.2-36.4,13.4-105.4,168.6-80.5c126.5,21.1,70.9,93.9-72.8,93.9C7918.9-2179.2,7876.8-2185,7850-2192.6z"/><path d="M9208.4-2723.3c-67.1-70.9-63.2-187.8,7.6-249.1c84.3-70.9,168.6-55.6,220.3,44.1C9528.3-2757.9,9336.7-2587.3,9208.4-2723.3z"/><path d="M8702.5-3353.7c-36.4-34.5-47.9-67.1-47.9-130.3c0-149.4,139.9-220.3,239.5-118.8c99.6,97.7,34.5,297-95.8,297C8771.5-3305.8,8727.4-3326.9,8702.5-3353.7z"/><path d="M8192.9-4031.9c-137.9-139.9,5.7-360.2,174.3-270.1c46,24.9,82.4,134.1,65.1,199.3c-13.4,59.4-92,126.4-145.6,126.4C8265.7-3976.4,8223.6-4001.3,8192.9-4031.9z"/></g></g>
</svg>