<?xml version="1.0" encoding="utf-8"?>
<!-- Svg Vector Icons : http://www.onlinewebfonts.com/icon -->
<!DOCTYPE svg PUBLIC "-//W3C//DTD SVG 1.1//EN" "http://www.w3.org/Graphics/SVG/1.1/DTD/svg11.dtd">
<svg style="fill: #ffffff;" version="1.1" xmlns="http://www.w3.org/2000/svg" xmlns:xlink="http://www.w3.org/1999/xlink" x="0px" y="0px" viewBox="0 0 1000 1000" enable-background="new 0 0 1000 1000" xml:space="preserve">
<metadata> Svg Vector Icons : http://www.onlinewebfonts.com/icon </metadata>
<g><g transform="translate(0.000000,512.000000) scale(0.100000,-0.100000)"><path d="M4631,5015.7c-690-61.3-1293.7-233.8-1893.6-544.3C1574,3869.6,688.6,2803.9,303.3,1548.6C153.8,1061.7,100.2,693.8,100.2,130.3c-1.9-460,11.5-607.6,95.8-1025.4C303.3-1426,590.8-2112.1,899.4-2577.9c1192.1-1784.4,3346.4-2591.2,5404.8-2025.9c833.7,228.1,1590.8,680.4,2207.9,1314.8C9986-1771,10321.4,498.3,9347.8,2372.7c-381.4,736-948.7,1368.5-1646.3,1836.1c-254.9,168.7-743.7,417.8-1029.2,523.2c-258.7,93.9-640.2,191.7-941,237.7C5491.6,5008,4845.7,5034.9,4631,5015.7z M5579.7,4109.1c448.5-67.1,812.6-182.1,1217.1-385.2c402.5-203.2,730.2-438.9,1044.5-755.1C8611.8,2194.5,9020,1209.3,9020,120.7c0-902.7-276-1723-826-2451.3c-427.4-563.5-1081-1054.1-1763.3-1316.7c-237.7-92-640.2-191.7-908.5-228.1c-283.6-36.4-768.6-36.4-1048.4,0c-722.5,95.8-1418.3,391-1997.1,849.1c-174.4,138-490.7,454.2-628.7,628.6c-369.9,467.7-657.4,1061.8-782,1617.6c-130.3,578.8-130.3,1219,0,1801.6c122.7,553.9,414,1155.7,782,1617.6C2474.8,3423,3391,3953.9,4391.4,4107.2C4717.3,4157.1,5248.2,4157.1,5579.7,4109.1z"/><path d="M4707.7,3961.6c-26.8-7.7-24.9-63.3,13.4-511.7c23-276,42.2-513.7,44.1-525.2c0-19.2,59.4-24.9,230-24.9s230,5.7,230,24.9c1.9,11.5,21.1,249.2,44.1,525.2l44.1,502.1l-40.3,9.6C5229,3973.1,4751.8,3973.1,4707.7,3961.6z"/><path d="M3778.1,3769.9c-136.1-47.9-264.5-92-281.7-97.8c-19.2-5.7-34.5-19.2-34.5-32.6c0-11.5,92-233.8,205.1-494.5c161-371.8,212.7-471.5,235.7-461.9c15.3,5.7,109.2,40.2,207,74.7c99.7,34.5,184,67.1,187.8,70.9c11.5,11.5-243.4,1029.2-258.7,1029.2C4033,3858.1,3916.1,3817.8,3778.1,3769.9z"/><path d="M5811.6,3348.3c-70.9-281.7-124.6-515.6-118.8-519.4c3.8-3.8,88.2-36.4,187.8-70.9c97.7-34.5,191.7-69,207-74.7c23-9.6,74.8,93.9,241.5,475.3l214.7,490.7l-70.9,28.7c-90.1,38.3-419.7,151.4-483,166.7l-51.7,13.4L5811.6,3348.3z"/><path d="M2722.1,3229.4c-82.4-61.3-191.7-151.4-241.5-197.4l-92-84.3l354.6-383.3c193.6-210.8,358.4-383.3,362.2-383.3c5.8,0,72.8,49.8,149.5,109.2c76.7,61.3,157.2,122.7,176.3,136.1c36.4,26.8,24.9,47.9-249.2,469.6c-157.2,243.4-291.3,442.7-297.1,444.6C2879.2,3340.6,2806.4,3290.8,2722.1,3229.4z"/><path d="M6806.3,2895.9l-285.6-442.7l53.7-40.2c30.7-23,97.7-74.7,151.4-116.9c51.7-42.2,109.2-88.2,126.5-99.7c28.8-21.1,78.6,26.8,391,364.2l358.4,387.2l-88.2,82.4c-95.8,88.2-389.1,310.5-408.2,310.5C7099.6,3338.7,6965.4,3139.3,6806.3,2895.9z"/><path d="M4592.7,2679.4C3481.1,2503,2605.2,1619.5,2436.5,504c-170.6-1113.5,414-2215.6,1437.5-2713.9c389.1-187.8,762.8-266.4,1207.5-251.1c147.6,5.7,337.3,23,421.7,42.2c1021.6,212.7,1818.9,1010.1,2031.6,2031.6c47.9,226.2,57.5,647.8,21.1,881.6c-174.4,1134.6-1050.3,2014.4-2177.3,2184.9C5156.2,2713.9,4811.2,2713.9,4592.7,2679.4z M5405.3,1799.6c624.8-170.6,1061.8-594.1,1249.6-1211.3c47.9-153.3,53.7-199.3,53.7-467.7c0-268.3-5.8-314.3-51.7-465.7c-182.1-594.1-601.8-1013.9-1196-1196c-151.4-46-197.4-51.8-465.7-51.8s-314.3,5.7-465.7,51.8c-764.7,233.8-1259.2,889.3-1259.2,1675.1c0,703.4,465.7,1366.5,1130.8,1606.1c239.6,86.3,368,105.4,642.1,95.8C5186.8,1832.2,5340.1,1816.9,5405.3,1799.6z"/><path d="M5240.5,1335.8c-107.3-57.5-141.8-214.6-72.8-327.7c32.6-55.6,34.5-69,11.5-124.6c-13.4-34.5-40.3-103.5-57.5-153.3l-34.5-92h-107.3c-139.9,0-276-63.3-373.7-170.6l-72.8-80.5l-151.4,53.7c-139.9,49.8-151.4,57.5-170.6,124.6c-72.8,237.7-423.6,205.1-456.2-42.2c-23-161,101.6-285.6,260.7-262.6c46,5.8,97.7,23,115,40.3c30.7,26.8,42.2,28.8,99.7,5.8c36.4-15.3,105.4-42.2,157.1-59.4l90.1-34.5V105.4c0-139.9,63.2-276,170.6-373.8l82.4-72.8L4677-492.6c-42.2-122.7-59.4-153.3-99.7-162.9c-82.4-21.1-136.1-69-166.7-151.4c-26.8-67.1-26.8-90.1-5.8-155.2c61.3-187.8,339.2-220.4,427.4-47.9c36.4,70.9,36.4,191.7,0,241.5c-38.3,49.8-36.4,74.7,21.1,233.8l51.7,138h107.3c138,0,274.1,63.2,371.8,170.6l72.8,82.4l153.3-53.7c134.2-46,153.3-59.4,170.6-113.1c42.2-126.5,178.3-201.2,295.2-162.9c105.4,34.5,164.8,118.8,164.8,233.8c0,84.3-7.7,103.5-65.2,161c-57.5,57.5-78.6,65.2-161,65.2c-63.3,0-109.3-11.5-139.9-36.4c-46-34.5-47.9-34.5-203.2,23l-159.1,57.5v107.3c0,138-63.2,274.1-170.6,371.8l-80.5,72.8l53.7,153.3c47.9,136.1,59.4,155.2,107.3,164.8c74.8,15.3,162.9,109.2,178.2,189.7c24.9,139.9-88.2,276-228.1,276C5328.7,1364.6,5269.2,1353.1,5240.5,1335.8z M5060.3,404.4c30.7-49.8-5.8-97.7-86.3-115c-74.7-15.3-151.4-93.9-151.4-157.2c0-84.3-95.8-116.9-139.9-47.9c-49.8,80.5,59.4,279.8,187.8,335.4C4945.3,454.2,5033.5,446.5,5060.3,404.4z"/><path d="M1873,2374.6c-95.8-128.4-251.1-383.3-251.1-410.1c0-9.6,207-132.3,461.9-268.3l460-251.1l42.2,70.9c23,38.3,78.6,126.5,124.6,193.6c46,67.1,76.7,128.4,67.1,136.1c-44.1,40.3-812.6,632.5-820.3,632.5C1953.5,2478.1,1915.2,2432.1,1873,2374.6z"/><path d="M7649.6,2188.7c-199.3-159.1-385.2-302.8-410.2-322l-47.9-34.5l67.1-93.9c38.3-51.7,92-134.2,120.8-184c28.8-51.7,61.3-92,72.9-92c34.5,0,916.1,483,916.1,502.2c0,46-299,496.4-335.4,506C8023.4,2472.4,7850.9,2345.9,7649.6,2188.7z"/><path d="M1332.5,1314.7c-26.8-72.8-105.4-381.4-122.7-479.2c-11.5-74.7-9.6-78.6,42.2-90.1c126.5-24.9,989-164.8,990.9-161c19.2,28.8,103.5,429.3,92,440.8c-11.5,9.6-956.4,341.1-975.6,341.1C1355.5,1366.5,1344,1343.5,1332.5,1314.7z"/><path d="M8128.8,1199.7c-262.6-92-483-166.7-486.8-170.6c-5.7-3.8,93.9-429.3,105.4-444.6c3.8-7.7,1027.3,166.7,1036.9,176.3c24.9,24.9-122.7,588.4-157.2,598C8615.6,1362.7,8393.3,1289.8,8128.8,1199.7z"/><path d="M1142.8,15.3c0-141.8,38.3-494.5,55.6-513.6c11.5-11.5,749.4,99.6,1000.5,151.4c46,9.6,47.9,11.5,34.5,109.2c-7.7,55.6-15.3,157.2-15.3,230l-1.9,128.4h-536.7h-536.7V15.3z"/><path d="M7772.3-7.7c0-72.8-7.7-172.5-17.3-226.2c-7.7-51.7-13.4-97.8-11.5-99.7c13.4-15.3,1038.8-174.4,1050.3-162.9c15.3,15.3,53.6,391,53.6,525.2v92h-536.7h-536.7L7772.3-7.7z"/><path d="M1861.5-956.4c-274.1-95.8-500.2-174.4-504.1-178.2c-9.6-9.6,109.2-293.2,182.1-438.9l72.8-141.8l450.4,247.2c247.2,134.2,458.1,249.2,467.6,253c9.6,1.9,1.9,34.5-17.2,70.9c-19.2,36.4-61.3,132.2-93.9,212.7l-59.4,145.7L1861.5-956.4z"/><path d="M7542.3-992.9l-90.1-210.8l42.1-24.9c76.7-47.9,868.2-471.5,879.7-471.5c30.7,0,276,548.1,254.9,569.2c-3.8,3.8-218.5,80.5-473.4,168.7c-256.8,88.2-481.1,164.8-496.4,170.6C7638.2-783.9,7607.5-833.8,7542.3-992.9z"/><path d="M2060.8-1583.2c-40.2-42.2-55.6-74.7-55.6-126.5c0-86.3,86.3-182.1,162.9-182.1c120.7,0,220.4,113.1,193.6,222.3C2325.3-1527.6,2164.3-1481.6,2060.8-1583.2z"/><path d="M7176.3-1602.3c-1.9-11.5-69-88.1-147.6-174.4L6886.9-1932l67.1-70.9c36.4-38.3,176.3-191.7,312.4-339.3c134.2-147.6,264.5-287.5,287.5-312.4c26.8-28.7,51.8-38.3,74.8-30.7c38.3,15.4,394.8,412.1,392.9,438.9c0,11.5-151.4,136.1-335.4,277.9C7201.2-1594.7,7183.9-1581.2,7176.3-1602.3z"/><path d="M2375.2-1922.4c-224.2-174.4-408.2-323.9-408.2-329.6c0-26.8,387.2-444.7,410.2-444.7c21.1,0,513.7,517.5,690,722.6c34.5,42.1,34.5,42.1-113.1,207c-82.4,90.1-155.2,162.9-161,162.9S2597.5-1748,2375.2-1922.4z"/><path d="M3193.6-2643c-153.3-233.8-279.8-435.1-283.7-448.5c-3.8-11.5,44.1-53.7,105.4-90.1c130.3-78.6,429.3-230,437-220.4c1.9,3.8,93.9,208.9,201.2,456.2c107.3,247.2,203.2,465.7,212.7,483c15.3,26.8,1.9,40.3-70.9,70.9c-47.9,23-138,70.9-199.3,107.3c-61.3,36.4-113.1,67.1-118.8,67.1C3473.4-2217.5,3345-2409.2,3193.6-2643z"/><path d="M6336.8-2315.3c-88.2-51.7-172.5-93.9-185.9-93.9c-13.4,0-24.9-9.6-24.9-21.1c0-17.2,389.1-918,415.9-962.1c9.6-17.2,435.1,199.3,507.9,260.7l49.8,42.2l-283.7,431.2c-157.1,235.7-291.3,431.2-300.9,435.1C6507.4-2221.4,6426.9-2263.6,6336.8-2315.3z"/><path d="M4184.4-3091.5c-72.8-279.8-126.5-513.7-120.7-519.4c17.2-17.2,339.2-78.6,483-92l134.2-13.4l44.1,521.3c23,287.5,38.3,527.1,32.6,530.9c-5.8,5.7-86.3,23-182.1,36.4c-93.9,13.4-191.7,30.7-216.6,36.4C4314.8-2579.8,4312.9-2589.4,4184.4-3091.5z"/><path d="M5437.9-2621.9c-109.2-19.2-201.2-38.3-205.1-40.3c-3.8-3.8,80.5-1010.1,86.3-1048.4c5.8-21.1,580.7,72.9,609.5,99.7c9.6,11.5-61.4,320.1-189.7,805c-32.6,124.6-69,222.3-80.5,222.3C5646.8-2585.5,5547.2-2602.8,5437.9-2621.9z"/></g></g>
</svg>