<?xml version="1.0" encoding="utf-8"?>
<!-- Svg Vector Icons : http://www.onlinewebfonts.com/icon -->
<!DOCTYPE svg PUBLIC "-//W3C//DTD SVG 1.1//EN" "http://www.w3.org/Graphics/SVG/1.1/DTD/svg11.dtd">
<svg version="1.1" xmlns="http://www.w3.org/2000/svg" xmlns:xlink="http://www.w3.org/1999/xlink" x="0px" y="0px" viewBox="0 0 1000 1000" enable-background="new 0 0 1000 1000" xml:space="preserve">
<metadata> Svg Vector Icons : http://www.onlinewebfonts.com/icon </metadata>
<g><g transform="translate(0.000000,511.000000) scale(0.100000,-0.100000)"><path d="M5827.2,4329.1c-631.3-106.1-1222.1-494.9-1570.6-1032.7c-255-393.9-366.1-777.7-368.7-1257.5c0-914,489.8-1699.3,1302.9-2093.2c371.2-179.3,563.1-222.2,1022.6-222.2c353.5,2.5,414.1,7.6,616.1,70.7c401.5,121.2,691.8,290.4,984.7,568.1c467.1,449.5,704.5,1010,704.5,1669c0,666.6-237.3,1224.6-719.6,1681.6c-338.3,320.7-780.2,540.3-1232.2,613.6C6380.1,4356.9,6006.5,4356.9,5827.2,4329.1z M6609.9,2632.3c318.1-421.7,797.9-770.1,1315.5-954.4c85.9-32.8,156.6-73.2,156.6-90.9c0-17.7-25.2-106-58.1-194.4C7796.7,768.9,7274,301.7,6637.7,150.2c-212.1-50.5-633.8-48-861,2.5C4731.3,387.6,4067.2,1463.2,4332.4,2501c22.7,80.8,42.9,161.6,48,176.7c7.6,20.2,85.8,10.1,260.1-32.8c502.5-126.3,1207-103.5,1669,53c93.4,32.8,176.7,60.6,184.3,63.1C6503.9,2761.1,6554.4,2703,6609.9,2632.3z"/><path d="M2415.9,2051.6c-20.2-32.8-68.2-136.3-108.6-232.3c-146.4-356-300.5-441.9-701.9-393.9c-345.9,40.4-421.7-22.7-275.2-237.3l68.2-98.5l303,17.7c383.8,22.7,500,68.2,681.7,270.2l133.8,146.4l85.8-118.7c116.2-156.6,356-282.8,535.3-282.8c68.2,0,121.2-7.6,116.1-17.7c-73.2-141.4-106-250-116.1-388.8c-10.1-136.3,0-191.9,53-320.7l63.1-156.6h-80.8c-42.9,0-121.2-12.6-171.7-27.8l-95.9-25.2V24c0-90.9,5.1-164.1,7.6-164.1c5.1,0,48,17.7,93.4,40.4c68.2,35.3,131.3,40.4,383.8,25.3c439.3-25.3,459.5,7.6,222.2,340.9c-174.2,242.4-186.9,277.7-171.7,462.1c10.1,111.1,32.8,164.1,138.9,308.1c204.5,282.8,224.7,340.9,131.3,391.4c-37.9,20.2-118.7,20.2-310.6-2.5c-227.3-25.2-272.7-25.2-358.6,12.6c-149,60.6-209.6,131.3-318.1,366.1c-55.5,118.7-118.7,234.8-138.9,260.1C2529.5,2124.8,2458.8,2117.2,2415.9,2051.6z"/><path d="M224.2,779c-37.9-20.2-83.3-60.6-98.5-90.9c-20.2-37.9-27.8-550.4-25.2-1883.7c5.1-1509.9,12.6-1845.8,40.4-1916.5c65.7-156.5,83.3-156.5,1237.3-141.4l1035.2,15.1l68.2,70.7l70.7,68.2v1373.6c0,755-7.6,1603.4-17.7,1888.7l-15.1,517.6l-70.7,68.2l-68.2,70.7H1335.2C464.1,816.8,282.3,811.8,224.2,779z M2117.9-1102.1l5.1-1479.7l-762.6-12.6c-421.7-7.6-777.7-7.6-795.4-2.5c-20.2,7.6-30.3,396.4-37.9,1467c-5,800.4-5,1472.1,0,1489.8c7.6,25.3,181.8,30.3,797.9,25.3l785.3-7.6L2117.9-1102.1z M1491.7-2735.8c75.8-60.6,83.3-229.8,15.2-305.5c-65.6-73.2-194.4-90.9-287.8-42.9c-121.2,63.1-146.5,212.1-53,328.3c40.4,53,73.2,65.6,161.6,65.6C1393.3-2690.4,1456.4-2708.1,1491.7-2735.8z"/><path d="M4446-761.3c-146.4-32.8-366.1-93.4-492.4-136.4C3713.7-981,3181-1233.5,3032-1334.5l-88.4-63.1v-944.4v-944.3l-68.2-103.5c-40.4-63.1-111.1-123.7-176.8-156.6c-106-50.5-149-53-825.7-53H1161l-35.3-85.9c-20.2-45.4-58.1-166.6-85.8-265.1l-50.5-179.3h4456.6c3322.9,0,4454.1,7.6,4454.1,27.8c0,121.2-244.9,752.5-398.9,1032.7c-553,1004.9-1414,1749.8-2479.6,2146.2c-237.4,88.4-353.5,113.6-353.5,78.3c0-15.2-22.7-88.4-53-166.7c-73.2-194.4-257.6-388.8-457-482.3c-138.9-63.1-189.4-73.2-386.3-73.2c-194.4,0-247.4,10.1-371.2,68.2c-267.6,126.3-487.3,419.1-520.2,691.9c-10.1,106-15.2,111.1-90.9,108.6C4746.5-698.2,4592.4-725.9,4446-761.3z"/></g></g>
</svg>