<?xml version="1.0"?>
<svg xmlns="http://www.w3.org/2000/svg" height="512px" viewBox="-32 0 368 368" width="512px"><path d="m264 368c22.054688 0 40-17.945312 40-40v-288c0-22.054688-17.945312-40-40-40h-224c-22.054688 0-40 17.945312-40 40v288c0 22.054688 17.945312 40 40 40zm-248-71.792969v-224.414062c6.703125 5.078125 14.960938 8.207031 24 8.207031h24v208h-24c-9.039062 0-17.296875 3.128906-24 8.207031zm272-224.414062v224.40625c-6.703125-5.070313-14.960938-8.199219-24-8.199219h-24v-208h24c9.039062 0 17.296875-3.128906 24-8.207031zm-208 216.207031v-208h144v208zm-8.207031-224c5.078125-6.703125 8.207031-14.960938 8.207031-24s-3.128906-17.296875-8.207031-24h160.40625c-5.070313 6.703125-8.199219 14.960938-8.199219 24s3.128906 17.296875 8.207031 24zm160.414062 240c-5.078125 6.703125-8.207031 14.960938-8.207031 24s3.128906 17.296875 8.207031 24h-160.414062c5.078125-6.703125 8.207031-14.960938 8.207031-24s-3.128906-17.296875-8.207031-24zm31.792969 48c-13.230469 0-24-10.769531-24-24s10.769531-24 24-24 24 10.769531 24 24-10.769531 24-24 24zm24-312c0 13.230469-10.769531 24-24 24s-24-10.769531-24-24 10.769531-24 24-24 24 10.769531 24 24zm-248-24c13.230469 0 24 10.769531 24 24s-10.769531 24-24 24-24-10.769531-24-24 10.769531-24 24-24zm-24 312c0-13.230469 10.769531-24 24-24s24 10.769531 24 24-10.769531 24-24 24-24-10.769531-24-24zm0 0" fill="#FFFFFF"/></svg>
