<?xml version="1.0" encoding="utf-8"?>
<!-- Svg Vector Icons : http://www.onlinewebfonts.com/icon -->
<!DOCTYPE svg PUBLIC "-//W3C//DTD SVG 1.1//EN" "http://www.w3.org/Graphics/SVG/1.1/DTD/svg11.dtd">
<svg style="fill: #1200FD" version="1.1" xmlns="http://www.w3.org/2000/svg" xmlns:xlink="http://www.w3.org/1999/xlink" x="0px" y="0px" viewBox="0 0 1000 1000" enable-background="new 0 0 1000 1000" xml:space="preserve">
<metadata> Svg Vector Icons : http://www.onlinewebfonts.com/icon </metadata>
<g><g transform="translate(0.000000,512.000000) scale(0.100000,-0.100000)"><path d="M4525.3,5006c-952.3-95.8-1872-473.3-2605.9-1065.4c-249.1-201.2-651.5-615.1-835.4-858.4c-513.5-684.1-831.6-1467.7-960-2356.8C87.7,464.9,93.4-274.7,135.6-548.7c134.1-871.8,438.8-1605.7,956.1-2297.4c176.3-237.6,697.5-758.8,935.1-935.1c839.2-626.6,1770.5-958,2805.2-994.4c1120.9-42.2,2209.2,302.7,3129,992.5c233.8,174.4,653.4,582.5,843.1,818.2c709,881.4,1094.1,1971.6,1096,3096.4c0,1099.8-398.5,2220.8-1101.7,3084.9c-187.8,231.8-609.3,640-837.3,810.5c-674.5,505.8-1431.3,822-2276.3,952.3C5445.1,5015.6,4770.6,5032.9,4525.3,5006z M5416.3,4699.5c732-65.1,1473.5-323.8,2079-722.4c312.3-205,496.3-354.5,749.2-605.5C8968.8,2645.4,9413.3,1742.9,9557,696.7c15.4-101.6,26.8-354.5,26.8-574.8c0-569.1-63.2-958-241.4-1485c-224.2-664.9-586.3-1249.3-1090.3-1755.1c-720.4-724.3-1611.4-1166.9-2672.9-1322.1c-226.1-34.5-942.7-34.5-1168.8,0c-728.1,107.3-1356.6,339.1-1916.1,707c-321.9,210.8-500.1,356.4-766.4,624.7C559-1932.2,122.2-230.7,572.4,1376.9c389,1389.2,1446.7,2540.7,2801.3,3046.6c404.3,153.3,797.1,239.5,1276.1,285.5C4808.9,4722.5,5213.2,4718.6,5416.3,4699.5z"/><path d="M4764.9,3377.3c-823.9-53.6-1634.4-452.2-2182.4-1074.9C2164.7,1827.2,1908,1281.1,1793,620.1c-34.5-189.7-34.5-806.7,0-996.4c115-659.2,356.4-1176.5,777.9-1667c433-507.8,1084.5-887.1,1780.1-1038.5c168.6-38.3,251-42.2,643.8-42.2c427.3-1.9,461.8,1.9,680.2,53.7c848.8,199.3,1565.5,697.5,2027.2,1410.2c835.4,1291.4,664.9,2994.9-408.1,4081.3c-549.9,557.6-1297.2,908.2-2021.5,950.4c-93.9,3.8-197.3,11.5-229.9,13.4C5012,3388.8,4885.6,3385,4764.9,3377.3z M4362.5,2710.5v-362.1l-70.9-23c-40.2-13.4-149.5-59.4-241.4-101.6l-168.6-76.6l-254.8,252.9l-256.8,252.9l70.9,46c97.7,59.4,364.1,193.5,484.8,241.4c93.9,36.4,390.9,128.4,423.4,130.3C4356.7,3072.7,4362.5,2909.8,4362.5,2710.5z M5933.7,2982.6c197.4-63.2,651.5-285.5,664.9-321.9c3.8-11.5-105.4-130.3-239.5-264.4L6113.8,2151l-161,76.6c-90.1,40.2-199.3,86.2-243.3,99.6l-82.4,23v362.1v360.2l53.6-11.5C5709.5,3055.4,5822.5,3019,5933.7,2982.6z M5540.9,2116.6c337.2-93.9,726.2-327.7,946.6-569.1c224.2-245.3,396.6-553.8,492.4-879.5c61.3-212.7,84.3-630.4,46-866.1c-70.9-442.6-274-833.5-599.7-1149.7c-256.8-249.1-528.9-408.1-885.2-517.3c-162.9-47.9-193.5-51.7-546.1-51.7c-350.6,0-383.2,3.8-546.1,51.7c-208.9,63.2-517.3,212.7-661.1,320c-425.4,316.2-707,760.7-814.3,1281.9c-40.2,193.5-40.2,580.6,0,777.9c63.2,302.7,205,620.8,379.4,846.9c111.1,145.6,358.3,379.4,492.4,467.5c220.4,145.6,477.1,252.9,749.2,314.2C4789.8,2187.4,5343.5,2172.1,5540.9,2116.6z M2647.6,1574.3c84.3-88.1,191.6-199.3,237.6-249.1l84.3-90.1l-76.6-168.6c-42.1-92-88.1-201.2-101.5-239.5l-23-72.8h-343c-279.8,0-343,5.7-343,26.8c0,57.5,101.5,375.6,170.5,532.7c84.3,191.6,208.9,417.7,228,417.7C2488.5,1731.4,2563.3,1660.5,2647.6,1574.3z M7648.6,1490c111.1-218.4,222.3-511.6,249.1-663l13.4-72.8h-352.6H7204l-23,82.4c-13.4,44.1-55.6,153.3-92,239.5l-69,161l84.3,88.1c241.4,258.7,392.8,406.2,410,400.5C7524,1721.8,7585.4,1616.5,7648.6,1490z M2791.3-581.3c13.4-40.2,57.5-147.5,101.5-239.5l76.6-166.7l-155.2-168.6c-84.3-93.9-193.5-206.9-243.3-254.8c-86.2-84.3-90.1-86.2-118.8-47.9c-101.6,134.1-321.9,668.7-360.2,877.6l-13.4,70.9h344.9h344.9L2791.3-581.3z M7897.7-581.3c-34.5-199.3-260.6-745.4-362.2-877.6c-26.8-36.4-30.6-36.4-116.9,47.9c-49.8,47.9-159,160.9-243.3,254.8l-155.2,168.6l76.6,166.7c44.1,92,88.1,199.3,101.6,239.5l23,70.9h344.9h344.9L7897.7-581.3z M4013.7-1964.7c59.4-28.7,162.9-74.7,229.9-97.7l118.8-44.1v-362.1v-360.2l-51.7,11.5c-161,36.4-475.2,155.2-653.4,247.2c-325.7,164.8-321.9,120.7-32.6,410c136,138,254.8,251,264.4,251C3896.9-1909.2,3952.4-1934.1,4013.7-1964.7z M6364.8-2158.3c287.4-289.3,293.2-245.3-38.3-410c-206.9-103.5-484.8-206.9-626.6-231.8l-72.8-13.4v354.5v352.6l139.9,51.7c74.7,28.7,176.3,72.8,224.2,97.7c47.9,24.9,95.8,46,105.4,47.9C6108-1909.2,6228.8-2020.3,6364.8-2158.3z"/><path d="M4841.5,1445.9c0-95.8,0-95.8-78.6-118.8c-109.2-34.5-233.8-149.5-287.4-270.2c-36.4-82.4-44.1-136-44.1-283.6c-1.9-99.6,9.6-218.4,23-262.5c42.2-139.9,164.8-295.1,390.9-496.3c277.8-245.3,341.1-344.9,341.1-530.7c0-118.8-5.7-136.1-55.6-187.8c-44.1-42.1-74.7-55.6-134.1-55.6c-147.5,0-208.9,105.4-212.7,360.2v99.6h-182h-182v-149.5c0-331.5,109.2-532.7,331.5-607.4c90.1-30.7,90.1-32.6,90.1-116.9v-84.3h162.9h162.9v86.2c0,82.4,1.9,84.3,82.4,109.2c51.7,15.3,115,57.5,176.3,120.7c130.3,128.4,168.6,249.1,159,494.4c-5.7,153.3-13.4,193.5-67.1,302.7c-63.2,126.5-136,205-442.6,473.3c-164.8,145.6-231.9,252.9-247.2,392.8c-19.2,187.8,53.7,300.8,195.4,300.8c128.4,0,201.2-93.9,201.2-260.6v-84.3h182h182v124.5c0,178.2-55.6,312.3-172.5,417.7c-49.8,46-126.5,93.9-168.6,105.4c-76.6,23-78.6,26.8-84.3,115l-5.7,90.1l-157.1,5.8l-159,5.8V1445.9z"/></g></g>
</svg>